<svg xmlns="http://www.w3.org/2000/svg" xmlns:xlink="http://www.w3.org/1999/xlink" width="800" zoomAndPan="magnify" viewBox="0 0 600 119.999999" height="160" preserveAspectRatio="xMidYMid meet" version="1.0"><defs><g/><clipPath id="fc8fd208e7"><path d="M 66.929688 33.097656 L 107.296875 33.097656 L 107.296875 74.273438 L 66.929688 74.273438 Z M 66.929688 33.097656 " clip-rule="nonzero"/></clipPath><clipPath id="9d025b9536"><path d="M 70.992188 38.582031 L 103.242188 38.582031 L 103.242188 70.832031 L 70.992188 70.832031 Z M 70.992188 38.582031 " clip-rule="nonzero"/></clipPath></defs><g fill="#000000" fill-opacity="1"><g transform="translate(116.621495, 63.922213)"><g><path d="M 4.6875 0 L 4.6875 -17.359375 L 0.875 -17.359375 L 0.875 -22.359375 L 10.265625 -22.359375 L 10.265625 0 Z M 4.6875 0 "/></g></g></g><g fill="#000000" fill-opacity="1"><g transform="translate(129.883011, 63.922213)"><g><path d="M 6.125 -21.984375 C 7.289062 -22.554688 8.671875 -22.84375 10.265625 -22.84375 C 11.859375 -22.84375 13.238281 -22.554688 14.40625 -21.984375 C 15.570312 -21.421875 16.488281 -20.613281 17.15625 -19.5625 C 17.832031 -18.507812 18.328125 -17.316406 18.640625 -15.984375 C 18.960938 -14.648438 19.125 -13.144531 19.125 -11.46875 C 19.125 -9.789062 18.960938 -8.285156 18.640625 -6.953125 C 18.328125 -5.617188 17.832031 -4.425781 17.15625 -3.375 C 16.488281 -2.320312 15.570312 -1.507812 14.40625 -0.9375 C 13.238281 -0.375 11.859375 -0.09375 10.265625 -0.09375 C 8.671875 -0.09375 7.289062 -0.375 6.125 -0.9375 C 4.957031 -1.507812 4.035156 -2.320312 3.359375 -3.375 C 2.691406 -4.425781 2.203125 -5.617188 1.890625 -6.953125 C 1.578125 -8.285156 1.421875 -9.789062 1.421875 -11.46875 C 1.421875 -13.144531 1.578125 -14.648438 1.890625 -15.984375 C 2.203125 -17.316406 2.691406 -18.507812 3.359375 -19.5625 C 4.035156 -20.613281 4.957031 -21.421875 6.125 -21.984375 Z M 11.859375 -17.4375 C 11.410156 -17.675781 10.878906 -17.796875 10.265625 -17.796875 C 9.660156 -17.796875 9.128906 -17.675781 8.671875 -17.4375 C 8.222656 -17.195312 7.878906 -16.894531 7.640625 -16.53125 C 7.398438 -16.175781 7.203125 -15.703125 7.046875 -15.109375 C 6.898438 -14.523438 6.804688 -13.957031 6.765625 -13.40625 C 6.722656 -12.863281 6.703125 -12.210938 6.703125 -11.453125 C 6.703125 -10.703125 6.722656 -10.050781 6.765625 -9.5 C 6.804688 -8.957031 6.898438 -8.394531 7.046875 -7.8125 C 7.203125 -7.226562 7.398438 -6.753906 7.640625 -6.390625 C 7.878906 -6.035156 8.222656 -5.738281 8.671875 -5.5 C 9.128906 -5.257812 9.660156 -5.140625 10.265625 -5.140625 C 10.878906 -5.140625 11.410156 -5.257812 11.859375 -5.5 C 12.304688 -5.738281 12.648438 -6.035156 12.890625 -6.390625 C 13.140625 -6.753906 13.335938 -7.226562 13.484375 -7.8125 C 13.628906 -8.394531 13.722656 -8.957031 13.765625 -9.5 C 13.804688 -10.050781 13.828125 -10.703125 13.828125 -11.453125 C 13.828125 -12.210938 13.804688 -12.863281 13.765625 -13.40625 C 13.722656 -13.957031 13.628906 -14.523438 13.484375 -15.109375 C 13.335938 -15.703125 13.140625 -16.175781 12.890625 -16.53125 C 12.648438 -16.894531 12.304688 -17.195312 11.859375 -17.4375 Z M 11.859375 -17.4375 "/></g></g></g><g fill="#000000" fill-opacity="1"><g transform="translate(150.421035, 63.922213)"><g><path d="M 21.640625 -22.109375 L 14.640625 -11.03125 L 21.609375 0 L 15.5 0 L 11.4375 -6.421875 L 7.6875 0 L 1.578125 0 L 8.53125 -11.0625 L 1.578125 -22.109375 L 7.6875 -22.109375 L 11.75 -15.65625 L 15.53125 -22.109375 Z M 21.640625 -22.109375 "/></g></g></g><g fill="#000000" fill-opacity="1"><g transform="translate(173.60507, 63.922213)"><g><path d="M 0.84375 -18.015625 L 0.84375 -22.109375 L 18.296875 -22.109375 L 18.296875 -18.015625 L 12.25 -18.015625 L 12.25 0 L 6.859375 0 L 6.859375 -18.015625 Z M 0.84375 -18.015625 "/></g></g></g><g fill="#000000" fill-opacity="1"><g transform="translate(192.757099, 63.922213)"><g><path d="M 7.75 -17.578125 L 7.75 -14.296875 C 9.007812 -16.609375 10.6875 -17.765625 12.78125 -17.765625 L 12.78125 -12.28125 L 11.46875 -12.28125 C 10.226562 -12.28125 9.296875 -11.984375 8.671875 -11.390625 C 8.054688 -10.804688 7.75 -9.78125 7.75 -8.3125 L 7.75 0 L 2.359375 0 L 2.359375 -17.578125 Z M 7.75 -17.578125 "/></g></g></g><g fill="#000000" fill-opacity="1"><g transform="translate(206.11312, 63.922213)"><g><path d="M 13.0625 -5.5625 C 13.84375 -6.320312 14.234375 -7.394531 14.234375 -8.78125 C 14.234375 -10.175781 13.84375 -11.242188 13.0625 -11.984375 C 12.289062 -12.734375 11.398438 -13.109375 10.390625 -13.109375 C 9.390625 -13.109375 8.5 -12.726562 7.71875 -11.96875 C 6.9375 -11.21875 6.546875 -10.144531 6.546875 -8.75 C 6.546875 -7.363281 6.9375 -6.296875 7.71875 -5.546875 C 8.5 -4.804688 9.390625 -4.4375 10.390625 -4.4375 C 11.398438 -4.4375 12.289062 -4.8125 13.0625 -5.5625 Z M 3.40625 -2.296875 C 1.851562 -3.972656 1.078125 -6.125 1.078125 -8.75 C 1.078125 -11.375 1.851562 -13.53125 3.40625 -15.21875 C 4.957031 -16.914062 6.847656 -17.765625 9.078125 -17.765625 C 11.316406 -17.765625 13.035156 -16.9375 14.234375 -15.28125 L 14.234375 -17.578125 L 19.625 -17.578125 L 19.625 0 L 14.234375 0 L 14.234375 -2.546875 C 12.929688 -0.703125 11.1875 0.21875 9 0.21875 C 6.820312 0.21875 4.957031 -0.617188 3.40625 -2.296875 Z M 3.40625 -2.296875 "/></g></g></g><g fill="#000000" fill-opacity="1"><g transform="translate(228.100149, 63.922213)"><g><path d="M 13.0625 -5.5625 C 13.84375 -6.320312 14.234375 -7.394531 14.234375 -8.78125 C 14.234375 -10.175781 13.84375 -11.242188 13.0625 -11.984375 C 12.289062 -12.734375 11.398438 -13.109375 10.390625 -13.109375 C 9.390625 -13.109375 8.5 -12.726562 7.71875 -11.96875 C 6.9375 -11.21875 6.546875 -10.144531 6.546875 -8.75 C 6.546875 -7.363281 6.9375 -6.296875 7.71875 -5.546875 C 8.5 -4.804688 9.390625 -4.4375 10.390625 -4.4375 C 11.398438 -4.4375 12.289062 -4.8125 13.0625 -5.5625 Z M 3.40625 -2.296875 C 1.851562 -3.972656 1.078125 -6.125 1.078125 -8.75 C 1.078125 -11.375 1.851562 -13.53125 3.40625 -15.21875 C 4.957031 -16.914062 6.847656 -17.765625 9.078125 -17.765625 C 11.316406 -17.765625 13.035156 -16.9375 14.234375 -15.28125 L 14.234375 -23.3125 L 19.625 -23.3125 L 19.625 0 L 14.234375 0 L 14.234375 -2.546875 C 12.929688 -0.703125 11.1875 0.21875 9 0.21875 C 6.820312 0.21875 4.957031 -0.617188 3.40625 -2.296875 Z M 3.40625 -2.296875 "/></g></g></g><g fill="#000000" fill-opacity="1"><g transform="translate(250.087178, 63.922213)"><g><path d="M 9.828125 0.21875 C 7.265625 0.21875 5.164062 -0.601562 3.53125 -2.25 C 1.894531 -3.894531 1.078125 -6.082031 1.078125 -8.8125 C 1.078125 -11.550781 1.890625 -13.726562 3.515625 -15.34375 C 5.140625 -16.957031 7.242188 -17.765625 9.828125 -17.765625 C 12.410156 -17.765625 14.550781 -16.96875 16.25 -15.375 C 17.957031 -13.78125 18.8125 -11.5625 18.8125 -8.71875 C 18.8125 -8.113281 18.765625 -7.550781 18.671875 -7.03125 L 6.578125 -7.03125 C 6.679688 -6.25 7.023438 -5.609375 7.609375 -5.109375 C 8.203125 -4.617188 8.835938 -4.375 9.515625 -4.375 C 10.203125 -4.375 10.710938 -4.441406 11.046875 -4.578125 C 11.390625 -4.710938 11.640625 -4.847656 11.796875 -4.984375 C 11.953125 -5.128906 12.15625 -5.359375 12.40625 -5.671875 L 18.234375 -5.671875 C 17.734375 -3.910156 16.726562 -2.488281 15.21875 -1.40625 C 13.707031 -0.320312 11.910156 0.21875 9.828125 0.21875 Z M 13.203125 -10.390625 C 13.117188 -11.210938 12.757812 -11.878906 12.125 -12.390625 C 11.5 -12.910156 10.753906 -13.171875 9.890625 -13.171875 C 9.023438 -13.171875 8.296875 -12.910156 7.703125 -12.390625 C 7.117188 -11.878906 6.753906 -11.210938 6.609375 -10.390625 Z M 13.203125 -10.390625 "/></g></g></g><g fill="#000000" fill-opacity="1"><g transform="translate(269.995205, 63.922213)"><g><path d="M 7.75 -17.578125 L 7.75 -14.296875 C 9.007812 -16.609375 10.6875 -17.765625 12.78125 -17.765625 L 12.78125 -12.28125 L 11.46875 -12.28125 C 10.226562 -12.28125 9.296875 -11.984375 8.671875 -11.390625 C 8.054688 -10.804688 7.75 -9.78125 7.75 -8.3125 L 7.75 0 L 2.359375 0 L 2.359375 -17.578125 Z M 7.75 -17.578125 "/></g></g></g><g fill="#000000" fill-opacity="1"><g transform="translate(283.351226, 63.922213)"><g><path d="M 1.171875 -12.28125 C 1.171875 -13.832031 1.832031 -15.132812 3.15625 -16.1875 C 4.476562 -17.238281 6.265625 -17.765625 8.515625 -17.765625 C 10.773438 -17.765625 12.597656 -17.25 13.984375 -16.21875 C 15.367188 -15.1875 16.101562 -13.78125 16.1875 -12 L 10.671875 -12 C 10.609375 -12.613281 10.398438 -13.03125 10.046875 -13.25 C 9.691406 -13.46875 9.15625 -13.578125 8.4375 -13.578125 C 7.03125 -13.578125 6.328125 -13.144531 6.328125 -12.28125 C 6.328125 -11.507812 7.191406 -10.972656 8.921875 -10.671875 C 10.660156 -10.378906 12.242188 -9.929688 13.671875 -9.328125 C 14.410156 -9.035156 15.023438 -8.546875 15.515625 -7.859375 C 16.003906 -7.171875 16.25 -6.335938 16.25 -5.359375 C 16.25 -3.710938 15.546875 -2.367188 14.140625 -1.328125 C 12.734375 -0.296875 10.957031 0.21875 8.8125 0.21875 C 6.675781 0.21875 4.894531 -0.265625 3.46875 -1.234375 C 2.039062 -2.210938 1.265625 -3.660156 1.140625 -5.578125 L 6.640625 -5.578125 C 6.785156 -4.503906 7.546875 -3.96875 8.921875 -3.96875 C 9.546875 -3.96875 10.0625 -4.113281 10.46875 -4.40625 C 10.882812 -4.695312 11.09375 -5.070312 11.09375 -5.53125 C 11.09375 -6 10.75 -6.367188 10.0625 -6.640625 C 9.382812 -6.921875 8.5625 -7.15625 7.59375 -7.34375 C 6.625 -7.53125 5.648438 -7.765625 4.671875 -8.046875 C 3.703125 -8.328125 2.875 -8.816406 2.1875 -9.515625 C 1.507812 -10.222656 1.171875 -11.144531 1.171875 -12.28125 Z M 1.171875 -12.28125 "/></g></g></g><g fill="#000000" fill-opacity="1"><g transform="translate(300.833746, 63.922213)"><g><path d="M 7 -2.9375 C 7 -2.113281 6.710938 -1.414062 6.140625 -0.84375 C 5.578125 -0.28125 4.878906 0 4.046875 0 C 3.210938 0 2.515625 -0.28125 1.953125 -0.84375 C 1.390625 -1.414062 1.109375 -2.113281 1.109375 -2.9375 C 1.109375 -3.769531 1.390625 -4.46875 1.953125 -5.03125 C 2.515625 -5.601562 3.210938 -5.890625 4.046875 -5.890625 C 4.878906 -5.890625 5.578125 -5.601562 6.140625 -5.03125 C 6.710938 -4.46875 7 -3.769531 7 -2.9375 Z M 7 -2.9375 "/></g></g></g><g fill="#000000" fill-opacity="1"><g transform="translate(308.929261, 63.922213)"><g><path d="M 13.0625 -5.5625 C 13.84375 -6.320312 14.234375 -7.394531 14.234375 -8.78125 C 14.234375 -10.175781 13.84375 -11.242188 13.0625 -11.984375 C 12.289062 -12.734375 11.398438 -13.109375 10.390625 -13.109375 C 9.390625 -13.109375 8.5 -12.726562 7.71875 -11.96875 C 6.9375 -11.21875 6.546875 -10.144531 6.546875 -8.75 C 6.546875 -7.363281 6.9375 -6.296875 7.71875 -5.546875 C 8.5 -4.804688 9.390625 -4.4375 10.390625 -4.4375 C 11.398438 -4.4375 12.289062 -4.8125 13.0625 -5.5625 Z M 3.40625 -2.296875 C 1.851562 -3.972656 1.078125 -6.125 1.078125 -8.75 C 1.078125 -11.375 1.851562 -13.53125 3.40625 -15.21875 C 4.957031 -16.914062 6.847656 -17.765625 9.078125 -17.765625 C 11.316406 -17.765625 13.035156 -16.9375 14.234375 -15.28125 L 14.234375 -17.578125 L 19.625 -17.578125 L 19.625 0 L 14.234375 0 L 14.234375 -2.546875 C 12.929688 -0.703125 11.1875 0.21875 9 0.21875 C 6.820312 0.21875 4.957031 -0.617188 3.40625 -2.296875 Z M 3.40625 -2.296875 "/></g></g></g><g fill="#000000" fill-opacity="1"><g transform="translate(330.91629, 63.922213)"><g><path d="M 7.265625 -19.546875 C 6.660156 -18.941406 5.914062 -18.640625 5.03125 -18.640625 C 4.15625 -18.640625 3.410156 -18.941406 2.796875 -19.546875 C 2.191406 -20.160156 1.890625 -20.914062 1.890625 -21.8125 C 1.890625 -22.707031 2.191406 -23.457031 2.796875 -24.0625 C 3.410156 -24.675781 4.15625 -24.984375 5.03125 -24.984375 C 5.914062 -24.984375 6.660156 -24.675781 7.265625 -24.0625 C 7.878906 -23.457031 8.1875 -22.707031 8.1875 -21.8125 C 8.1875 -20.914062 7.878906 -20.160156 7.265625 -19.546875 Z M 2.359375 0 L 2.359375 -17.578125 L 7.75 -17.578125 L 7.75 0 Z M 2.359375 0 "/></g></g></g><g clip-path="url(#fc8fd208e7)"><path fill="#6de839" d="M 66.929688 33.097656 L 107.296875 33.097656 L 107.296875 74.25 L 66.929688 74.25 Z M 66.929688 33.097656 " fill-opacity="1" fill-rule="nonzero"/></g><g clip-path="url(#9d025b9536)"><path fill="#000000" d="M 103.242188 38.617188 L 70.996094 70.792969 L 70.996094 38.617188 Z M 103.242188 38.617188 " fill-opacity="1" fill-rule="nonzero"/></g></svg>