<svg xmlns="http://www.w3.org/2000/svg" xmlns:xlink="http://www.w3.org/1999/xlink" width="800" zoomAndPan="magnify" viewBox="0 0 600 119.999999" height="160" preserveAspectRatio="xMidYMid meet" version="1.0"><defs><g/><clipPath id="331803d86c"><path d="M 66.929688 33.097656 L 103.988281 33.097656 L 103.988281 71.605469 L 66.929688 71.605469 Z M 66.929688 33.097656 " clip-rule="nonzero"/></clipPath><clipPath id="f81ce31a84"><path d="M 70.9375 38.613281 L 99.4375 38.613281 L 99.4375 67.113281 L 70.9375 67.113281 Z M 70.9375 38.613281 " clip-rule="nonzero"/></clipPath></defs><g fill="#000000" fill-opacity="1"><g transform="translate(112.283878, 60.571303)"><g><path d="M 4.34375 0 L 4.34375 -16.078125 L 0.8125 -16.078125 L 0.8125 -20.71875 L 9.515625 -20.71875 L 9.515625 0 Z M 4.34375 0 "/></g></g></g><g fill="#000000" fill-opacity="1"><g transform="translate(124.565468, 60.571303)"><g><path d="M 5.671875 -20.359375 C 6.753906 -20.890625 8.035156 -21.15625 9.515625 -21.15625 C 10.992188 -21.15625 12.269531 -20.890625 13.34375 -20.359375 C 14.425781 -19.835938 15.273438 -19.085938 15.890625 -18.109375 C 16.515625 -17.140625 16.972656 -16.035156 17.265625 -14.796875 C 17.554688 -13.566406 17.703125 -12.171875 17.703125 -10.609375 C 17.703125 -9.054688 17.554688 -7.660156 17.265625 -6.421875 C 16.972656 -5.191406 16.515625 -4.085938 15.890625 -3.109375 C 15.273438 -2.140625 14.425781 -1.394531 13.34375 -0.875 C 12.269531 -0.351562 10.992188 -0.09375 9.515625 -0.09375 C 8.035156 -0.09375 6.753906 -0.351562 5.671875 -0.875 C 4.597656 -1.394531 3.75 -2.140625 3.125 -3.109375 C 2.5 -4.085938 2.039062 -5.191406 1.75 -6.421875 C 1.457031 -7.660156 1.3125 -9.054688 1.3125 -10.609375 C 1.3125 -12.171875 1.457031 -13.566406 1.75 -14.796875 C 2.039062 -16.035156 2.5 -17.140625 3.125 -18.109375 C 3.75 -19.085938 4.597656 -19.835938 5.671875 -20.359375 Z M 10.984375 -16.140625 C 10.566406 -16.367188 10.078125 -16.484375 9.515625 -16.484375 C 8.953125 -16.484375 8.457031 -16.367188 8.03125 -16.140625 C 7.613281 -15.921875 7.289062 -15.644531 7.0625 -15.3125 C 6.84375 -14.976562 6.664062 -14.539062 6.53125 -14 C 6.394531 -13.457031 6.304688 -12.929688 6.265625 -12.421875 C 6.234375 -11.921875 6.21875 -11.316406 6.21875 -10.609375 C 6.21875 -9.910156 6.234375 -9.304688 6.265625 -8.796875 C 6.304688 -8.296875 6.394531 -7.773438 6.53125 -7.234375 C 6.664062 -6.691406 6.84375 -6.253906 7.0625 -5.921875 C 7.289062 -5.585938 7.613281 -5.304688 8.03125 -5.078125 C 8.457031 -4.859375 8.953125 -4.75 9.515625 -4.75 C 10.078125 -4.75 10.566406 -4.859375 10.984375 -5.078125 C 11.398438 -5.304688 11.71875 -5.585938 11.9375 -5.921875 C 12.164062 -6.253906 12.347656 -6.691406 12.484375 -7.234375 C 12.617188 -7.773438 12.707031 -8.296875 12.75 -8.796875 C 12.789062 -9.304688 12.8125 -9.910156 12.8125 -10.609375 C 12.8125 -11.316406 12.789062 -11.921875 12.75 -12.421875 C 12.707031 -12.929688 12.617188 -13.457031 12.484375 -14 C 12.347656 -14.539062 12.164062 -14.976562 11.9375 -15.3125 C 11.71875 -15.644531 11.398438 -15.921875 10.984375 -16.140625 Z M 10.984375 -16.140625 "/></g></g></g><g fill="#000000" fill-opacity="1"><g transform="translate(143.585887, 60.571303)"><g><path d="M 20.046875 -20.484375 L 13.5625 -10.203125 L 20.015625 0 L 14.359375 0 L 10.59375 -5.953125 L 7.125 0 L 1.453125 0 L 7.90625 -10.234375 L 1.453125 -20.484375 L 7.125 -20.484375 L 10.875 -14.5 L 14.375 -20.484375 Z M 20.046875 -20.484375 "/></g></g></g><g fill="#000000" fill-opacity="1"><g transform="translate(165.056797, 60.571303)"><g><path d="M 0.78125 -16.6875 L 0.78125 -20.484375 L 16.953125 -20.484375 L 16.953125 -16.6875 L 11.34375 -16.6875 L 11.34375 0 L 6.359375 0 L 6.359375 -16.6875 Z M 0.78125 -16.6875 "/></g></g></g><g fill="#000000" fill-opacity="1"><g transform="translate(182.793636, 60.571303)"><g><path d="M 7.171875 -16.28125 L 7.171875 -13.25 C 8.335938 -15.382812 9.894531 -16.453125 11.84375 -16.453125 L 11.84375 -11.375 L 10.625 -11.375 C 9.46875 -11.375 8.601562 -11.101562 8.03125 -10.5625 C 7.457031 -10.019531 7.171875 -9.066406 7.171875 -7.703125 L 7.171875 0 L 2.1875 0 L 2.1875 -16.28125 Z M 7.171875 -16.28125 "/></g></g></g><g fill="#000000" fill-opacity="1"><g transform="translate(195.162748, 60.571303)"><g><path d="M 12.109375 -5.15625 C 12.828125 -5.863281 13.1875 -6.859375 13.1875 -8.140625 C 13.1875 -9.421875 12.828125 -10.40625 12.109375 -11.09375 C 11.390625 -11.789062 10.5625 -12.140625 9.625 -12.140625 C 8.6875 -12.140625 7.859375 -11.785156 7.140625 -11.078125 C 6.421875 -10.378906 6.0625 -9.390625 6.0625 -8.109375 C 6.0625 -6.828125 6.421875 -5.835938 7.140625 -5.140625 C 7.859375 -4.453125 8.6875 -4.109375 9.625 -4.109375 C 10.5625 -4.109375 11.390625 -4.457031 12.109375 -5.15625 Z M 3.140625 -2.125 C 1.703125 -3.6875 0.984375 -5.679688 0.984375 -8.109375 C 0.984375 -10.535156 1.703125 -12.53125 3.140625 -14.09375 C 4.585938 -15.664062 6.34375 -16.453125 8.40625 -16.453125 C 10.476562 -16.453125 12.070312 -15.679688 13.1875 -14.140625 L 13.1875 -16.28125 L 18.171875 -16.28125 L 18.171875 0 L 13.1875 0 L 13.1875 -2.359375 C 11.976562 -0.648438 10.363281 0.203125 8.34375 0.203125 C 6.320312 0.203125 4.585938 -0.570312 3.140625 -2.125 Z M 3.140625 -2.125 "/></g></g></g><g fill="#000000" fill-opacity="1"><g transform="translate(215.525101, 60.571303)"><g><path d="M 12.109375 -5.15625 C 12.828125 -5.863281 13.1875 -6.859375 13.1875 -8.140625 C 13.1875 -9.421875 12.828125 -10.40625 12.109375 -11.09375 C 11.390625 -11.789062 10.5625 -12.140625 9.625 -12.140625 C 8.6875 -12.140625 7.859375 -11.785156 7.140625 -11.078125 C 6.421875 -10.378906 6.0625 -9.390625 6.0625 -8.109375 C 6.0625 -6.828125 6.421875 -5.835938 7.140625 -5.140625 C 7.859375 -4.453125 8.6875 -4.109375 9.625 -4.109375 C 10.5625 -4.109375 11.390625 -4.457031 12.109375 -5.15625 Z M 3.140625 -2.125 C 1.703125 -3.6875 0.984375 -5.679688 0.984375 -8.109375 C 0.984375 -10.535156 1.703125 -12.53125 3.140625 -14.09375 C 4.585938 -15.664062 6.34375 -16.453125 8.40625 -16.453125 C 10.476562 -16.453125 12.070312 -15.679688 13.1875 -14.140625 L 13.1875 -21.59375 L 18.171875 -21.59375 L 18.171875 0 L 13.1875 0 L 13.1875 -2.359375 C 11.976562 -0.648438 10.363281 0.203125 8.34375 0.203125 C 6.320312 0.203125 4.585938 -0.570312 3.140625 -2.125 Z M 3.140625 -2.125 "/></g></g></g><g fill="#000000" fill-opacity="1"><g transform="translate(235.887455, 60.571303)"><g><path d="M 9.109375 0.203125 C 6.734375 0.203125 4.785156 -0.554688 3.265625 -2.078125 C 1.742188 -3.609375 0.984375 -5.632812 0.984375 -8.15625 C 0.984375 -10.6875 1.738281 -12.703125 3.25 -14.203125 C 4.757812 -15.703125 6.707031 -16.453125 9.09375 -16.453125 C 11.488281 -16.453125 13.472656 -15.710938 15.046875 -14.234375 C 16.628906 -12.753906 17.421875 -10.703125 17.421875 -8.078125 C 17.421875 -7.515625 17.378906 -6.988281 17.296875 -6.5 L 6.09375 -6.5 C 6.195312 -5.78125 6.519531 -5.191406 7.0625 -4.734375 C 7.601562 -4.285156 8.1875 -4.0625 8.8125 -4.0625 C 9.445312 -4.0625 9.921875 -4.125 10.234375 -4.25 C 10.546875 -4.375 10.773438 -4.5 10.921875 -4.625 C 11.066406 -4.75 11.257812 -4.957031 11.5 -5.25 L 16.890625 -5.25 C 16.421875 -3.613281 15.484375 -2.296875 14.078125 -1.296875 C 12.679688 -0.296875 11.023438 0.203125 9.109375 0.203125 Z M 12.21875 -9.625 C 12.144531 -10.382812 11.816406 -11 11.234375 -11.46875 C 10.648438 -11.945312 9.957031 -12.1875 9.15625 -12.1875 C 8.363281 -12.1875 7.691406 -11.945312 7.140625 -11.46875 C 6.597656 -11 6.257812 -10.382812 6.125 -9.625 Z M 12.21875 -9.625 "/></g></g></g><g fill="#000000" fill-opacity="1"><g transform="translate(254.324429, 60.571303)"><g><path d="M 7.171875 -16.28125 L 7.171875 -13.25 C 8.335938 -15.382812 9.894531 -16.453125 11.84375 -16.453125 L 11.84375 -11.375 L 10.625 -11.375 C 9.46875 -11.375 8.601562 -11.101562 8.03125 -10.5625 C 7.457031 -10.019531 7.171875 -9.066406 7.171875 -7.703125 L 7.171875 0 L 2.1875 0 L 2.1875 -16.28125 Z M 7.171875 -16.28125 "/></g></g></g><g fill="#000000" fill-opacity="1"><g transform="translate(266.693541, 60.571303)"><g><path d="M 1.078125 -11.375 C 1.078125 -12.8125 1.6875 -14.015625 2.90625 -14.984375 C 4.132812 -15.960938 5.796875 -16.453125 7.890625 -16.453125 C 9.984375 -16.453125 11.671875 -15.972656 12.953125 -15.015625 C 14.234375 -14.066406 14.914062 -12.765625 15 -11.109375 L 9.890625 -11.109375 C 9.828125 -11.671875 9.628906 -12.054688 9.296875 -12.265625 C 8.972656 -12.472656 8.476562 -12.578125 7.8125 -12.578125 C 6.507812 -12.578125 5.859375 -12.175781 5.859375 -11.375 C 5.859375 -10.65625 6.65625 -10.160156 8.25 -9.890625 C 9.863281 -9.617188 11.332031 -9.203125 12.65625 -8.640625 C 13.34375 -8.359375 13.910156 -7.898438 14.359375 -7.265625 C 14.816406 -6.640625 15.046875 -5.867188 15.046875 -4.953125 C 15.046875 -3.441406 14.394531 -2.203125 13.09375 -1.234375 C 11.789062 -0.273438 10.144531 0.203125 8.15625 0.203125 C 6.175781 0.203125 4.523438 -0.25 3.203125 -1.15625 C 1.878906 -2.0625 1.160156 -3.394531 1.046875 -5.15625 L 6.15625 -5.15625 C 6.289062 -4.164062 6.988281 -3.671875 8.25 -3.671875 C 8.832031 -3.671875 9.3125 -3.804688 9.6875 -4.078125 C 10.070312 -4.359375 10.265625 -4.710938 10.265625 -5.140625 C 10.265625 -5.566406 9.945312 -5.90625 9.3125 -6.15625 C 8.6875 -6.40625 7.925781 -6.617188 7.03125 -6.796875 C 6.132812 -6.972656 5.234375 -7.191406 4.328125 -7.453125 C 3.421875 -7.710938 2.648438 -8.164062 2.015625 -8.8125 C 1.390625 -9.46875 1.078125 -10.320312 1.078125 -11.375 Z M 1.078125 -11.375 "/></g></g></g><g fill="#000000" fill-opacity="1"><g transform="translate(282.884234, 60.571303)"><g><path d="M 6.46875 -2.71875 C 6.46875 -1.957031 6.207031 -1.3125 5.6875 -0.78125 C 5.164062 -0.257812 4.519531 0 3.75 0 C 2.976562 0 2.328125 -0.257812 1.796875 -0.78125 C 1.273438 -1.3125 1.015625 -1.957031 1.015625 -2.71875 C 1.015625 -3.488281 1.273438 -4.132812 1.796875 -4.65625 C 2.328125 -5.1875 2.976562 -5.453125 3.75 -5.453125 C 4.519531 -5.453125 5.164062 -5.1875 5.6875 -4.65625 C 6.207031 -4.132812 6.46875 -3.488281 6.46875 -2.71875 Z M 6.46875 -2.71875 "/></g></g></g><g fill="#000000" fill-opacity="1"><g transform="translate(290.381553, 60.571303)"><g><path d="M 12.109375 -5.15625 C 12.828125 -5.863281 13.1875 -6.859375 13.1875 -8.140625 C 13.1875 -9.421875 12.828125 -10.40625 12.109375 -11.09375 C 11.390625 -11.789062 10.5625 -12.140625 9.625 -12.140625 C 8.6875 -12.140625 7.859375 -11.785156 7.140625 -11.078125 C 6.421875 -10.378906 6.0625 -9.390625 6.0625 -8.109375 C 6.0625 -6.828125 6.421875 -5.835938 7.140625 -5.140625 C 7.859375 -4.453125 8.6875 -4.109375 9.625 -4.109375 C 10.5625 -4.109375 11.390625 -4.457031 12.109375 -5.15625 Z M 3.140625 -2.125 C 1.703125 -3.6875 0.984375 -5.679688 0.984375 -8.109375 C 0.984375 -10.535156 1.703125 -12.53125 3.140625 -14.09375 C 4.585938 -15.664062 6.34375 -16.453125 8.40625 -16.453125 C 10.476562 -16.453125 12.070312 -15.679688 13.1875 -14.140625 L 13.1875 -16.28125 L 18.171875 -16.28125 L 18.171875 0 L 13.1875 0 L 13.1875 -2.359375 C 11.976562 -0.648438 10.363281 0.203125 8.34375 0.203125 C 6.320312 0.203125 4.585938 -0.570312 3.140625 -2.125 Z M 3.140625 -2.125 "/></g></g></g><g fill="#000000" fill-opacity="1"><g transform="translate(310.743906, 60.571303)"><g><path d="M 6.734375 -18.109375 C 6.171875 -17.546875 5.476562 -17.265625 4.65625 -17.265625 C 3.84375 -17.265625 3.15625 -17.546875 2.59375 -18.109375 C 2.03125 -18.679688 1.75 -19.378906 1.75 -20.203125 C 1.75 -21.023438 2.03125 -21.71875 2.59375 -22.28125 C 3.15625 -22.851562 3.84375 -23.140625 4.65625 -23.140625 C 5.476562 -23.140625 6.171875 -22.851562 6.734375 -22.28125 C 7.296875 -21.71875 7.578125 -21.023438 7.578125 -20.203125 C 7.578125 -19.378906 7.296875 -18.679688 6.734375 -18.109375 Z M 2.1875 0 L 2.1875 -16.28125 L 7.171875 -16.28125 L 7.171875 0 Z M 2.1875 0 "/></g></g></g><g clip-path="url(#331803d86c)"><path fill="#6de839" d="M 66.929688 33.097656 L 103.988281 33.097656 L 103.988281 71.601562 L 66.929688 71.601562 Z M 66.929688 33.097656 " fill-opacity="1" fill-rule="nonzero"/></g><g clip-path="url(#f81ce31a84)"><path fill="#000000" d="M 99.4375 38.644531 L 70.941406 67.082031 L 70.941406 38.644531 Z M 99.4375 38.644531 " fill-opacity="1" fill-rule="nonzero"/></g></svg>