<svg xmlns="http://www.w3.org/2000/svg" xmlns:xlink="http://www.w3.org/1999/xlink" width="800" zoomAndPan="magnify" viewBox="0 0 600 119.999999" height="160" preserveAspectRatio="xMidYMid meet" version="1.0"><defs><g/><clipPath id="475c7d2ad8"><path d="M 67.867188 39.589844 L 99.457031 39.589844 L 99.457031 69.496094 L 67.867188 69.496094 Z M 67.867188 39.589844 " clip-rule="nonzero"/></clipPath><clipPath id="b15373b28d"><path d="M 72.199219 44.011719 L 93.726562 44.011719 L 93.726562 65.703125 L 72.199219 65.703125 Z M 72.199219 44.011719 " clip-rule="nonzero"/></clipPath></defs><g fill="#000000" fill-opacity="1"><g transform="translate(78.250766, 66.108258)"><g/></g><g transform="translate(86.433383, 66.108258)"><g/></g><g transform="translate(94.615999, 66.108258)"><g/></g></g><g fill="#000000" fill-opacity="1"><g transform="translate(102.801546, 66.108258)"><g><path d="M 13.015625 0 L 8.265625 0 L 8.265625 -13.015625 C 8.265625 -13.367188 8.269531 -13.8125 8.28125 -14.34375 C 8.289062 -14.875 8.304688 -15.414062 8.328125 -15.96875 C 8.347656 -16.53125 8.363281 -17.035156 8.375 -17.484375 C 8.269531 -17.347656 8.046875 -17.117188 7.703125 -16.796875 C 7.359375 -16.472656 7.035156 -16.1875 6.734375 -15.9375 L 4.15625 -13.859375 L 1.859375 -16.71875 L 9.109375 -22.484375 L 13.015625 -22.484375 Z M 13.015625 0 "/></g></g><g transform="translate(120.812531, 66.108258)"><g><path d="M 16.859375 -11.25 C 16.859375 -9.425781 16.71875 -7.800781 16.4375 -6.375 C 16.15625 -4.957031 15.703125 -3.75 15.078125 -2.75 C 14.460938 -1.757812 13.648438 -1 12.640625 -0.46875 C 11.640625 0.0507812 10.421875 0.3125 8.984375 0.3125 C 7.179688 0.3125 5.695312 -0.144531 4.53125 -1.0625 C 3.375 -1.988281 2.519531 -3.3125 1.96875 -5.03125 C 1.414062 -6.757812 1.140625 -8.832031 1.140625 -11.25 C 1.140625 -13.675781 1.390625 -15.753906 1.890625 -17.484375 C 2.398438 -19.210938 3.226562 -20.535156 4.375 -21.453125 C 5.53125 -22.378906 7.066406 -22.84375 8.984375 -22.84375 C 10.773438 -22.84375 12.253906 -22.382812 13.421875 -21.46875 C 14.585938 -20.550781 15.453125 -19.226562 16.015625 -17.5 C 16.578125 -15.769531 16.859375 -13.6875 16.859375 -11.25 Z M 5.859375 -11.25 C 5.859375 -9.53125 5.953125 -8.097656 6.140625 -6.953125 C 6.328125 -5.816406 6.644531 -4.957031 7.09375 -4.375 C 7.550781 -3.800781 8.179688 -3.515625 8.984375 -3.515625 C 9.773438 -3.515625 10.394531 -3.800781 10.84375 -4.375 C 11.300781 -4.945312 11.628906 -5.800781 11.828125 -6.9375 C 12.023438 -8.082031 12.125 -9.519531 12.125 -11.25 C 12.125 -12.957031 12.023438 -14.382812 11.828125 -15.53125 C 11.628906 -16.675781 11.300781 -17.539062 10.84375 -18.125 C 10.394531 -18.707031 9.773438 -19 8.984375 -19 C 8.179688 -19 7.550781 -18.707031 7.09375 -18.125 C 6.644531 -17.539062 6.328125 -16.675781 6.140625 -15.53125 C 5.953125 -14.382812 5.859375 -12.957031 5.859375 -11.25 Z M 5.859375 -11.25 "/></g></g><g transform="translate(138.823516, 66.108258)"><g><path d="M 21.015625 0 L 15.5625 0 L 10.34375 -8.5 L 5.109375 0 L 0 0 L 7.453125 -11.59375 L 0.484375 -22.484375 L 5.734375 -22.484375 L 10.578125 -14.390625 L 15.328125 -22.484375 L 20.46875 -22.484375 L 13.40625 -11.328125 Z M 21.015625 0 "/></g></g><g transform="translate(159.833769, 66.108258)"><g><path d="M 11.5 0 L 6.734375 0 L 6.734375 -18.515625 L 0.625 -18.515625 L 0.625 -22.484375 L 17.609375 -22.484375 L 17.609375 -18.515625 L 11.5 -18.515625 Z M 11.5 0 "/></g></g><g transform="translate(178.075467, 66.108258)"><g><path d="M 12.0625 -17.515625 C 12.289062 -17.515625 12.5625 -17.5 12.875 -17.46875 C 13.1875 -17.445312 13.441406 -17.414062 13.640625 -17.375 L 13.296875 -12.984375 C 13.140625 -13.035156 12.921875 -13.070312 12.640625 -13.09375 C 12.359375 -13.125 12.113281 -13.140625 11.90625 -13.140625 C 11.300781 -13.140625 10.710938 -13.0625 10.140625 -12.90625 C 9.578125 -12.75 9.066406 -12.5 8.609375 -12.15625 C 8.160156 -11.8125 7.804688 -11.359375 7.546875 -10.796875 C 7.285156 -10.242188 7.15625 -9.5625 7.15625 -8.75 L 7.15625 0 L 2.46875 0 L 2.46875 -17.203125 L 6.015625 -17.203125 L 6.703125 -14.296875 L 6.9375 -14.296875 C 7.269531 -14.890625 7.691406 -15.425781 8.203125 -15.90625 C 8.710938 -16.394531 9.289062 -16.785156 9.9375 -17.078125 C 10.59375 -17.367188 11.300781 -17.515625 12.0625 -17.515625 Z M 12.0625 -17.515625 "/></g></g><g transform="translate(192.379665, 66.108258)"><g><path d="M 9.5 -17.546875 C 11.8125 -17.546875 13.582031 -17.039062 14.8125 -16.03125 C 16.039062 -15.03125 16.65625 -13.503906 16.65625 -11.453125 L 16.65625 0 L 13.375 0 L 12.46875 -2.34375 L 12.34375 -2.34375 C 11.851562 -1.726562 11.351562 -1.222656 10.84375 -0.828125 C 10.332031 -0.441406 9.742188 -0.15625 9.078125 0.03125 C 8.410156 0.21875 7.597656 0.3125 6.640625 0.3125 C 5.628906 0.3125 4.71875 0.117188 3.90625 -0.265625 C 3.101562 -0.660156 2.472656 -1.257812 2.015625 -2.0625 C 1.554688 -2.875 1.328125 -3.898438 1.328125 -5.140625 C 1.328125 -6.960938 1.96875 -8.304688 3.25 -9.171875 C 4.53125 -10.035156 6.453125 -10.515625 9.015625 -10.609375 L 12 -10.703125 L 12 -11.453125 C 12 -12.359375 11.757812 -13.019531 11.28125 -13.4375 C 10.8125 -13.863281 10.160156 -14.078125 9.328125 -14.078125 C 8.492188 -14.078125 7.675781 -13.957031 6.875 -13.71875 C 6.070312 -13.476562 5.269531 -13.179688 4.46875 -12.828125 L 2.921875 -16 C 3.835938 -16.476562 4.859375 -16.851562 5.984375 -17.125 C 7.117188 -17.40625 8.289062 -17.546875 9.5 -17.546875 Z M 12 -7.96875 L 10.1875 -7.90625 C 8.664062 -7.863281 7.609375 -7.59375 7.015625 -7.09375 C 6.429688 -6.59375 6.140625 -5.929688 6.140625 -5.109375 C 6.140625 -4.390625 6.347656 -3.878906 6.765625 -3.578125 C 7.179688 -3.273438 7.726562 -3.125 8.40625 -3.125 C 9.414062 -3.125 10.265625 -3.421875 10.953125 -4.015625 C 11.648438 -4.609375 12 -5.453125 12 -6.546875 Z M 12 -7.96875 "/></g></g><g transform="translate(211.405787, 66.108258)"><g><path d="M 7.90625 0.3125 C 5.988281 0.3125 4.425781 -0.4375 3.21875 -1.9375 C 2.019531 -3.445312 1.421875 -5.65625 1.421875 -8.5625 C 1.421875 -11.507812 2.03125 -13.738281 3.25 -15.25 C 4.46875 -16.757812 6.0625 -17.515625 8.03125 -17.515625 C 8.851562 -17.515625 9.578125 -17.398438 10.203125 -17.171875 C 10.828125 -16.953125 11.363281 -16.648438 11.8125 -16.265625 C 12.269531 -15.890625 12.660156 -15.46875 12.984375 -15 L 13.140625 -15 C 13.078125 -15.320312 13 -15.800781 12.90625 -16.4375 C 12.820312 -17.082031 12.78125 -17.742188 12.78125 -18.421875 L 12.78125 -23.9375 L 17.484375 -23.9375 L 17.484375 0 L 13.890625 0 L 12.984375 -2.234375 L 12.78125 -2.234375 C 12.476562 -1.753906 12.101562 -1.320312 11.65625 -0.9375 C 11.21875 -0.5625 10.691406 -0.257812 10.078125 -0.03125 C 9.460938 0.195312 8.738281 0.3125 7.90625 0.3125 Z M 9.546875 -3.4375 C 10.828125 -3.4375 11.734375 -3.816406 12.265625 -4.578125 C 12.796875 -5.335938 13.078125 -6.488281 13.109375 -8.03125 L 13.109375 -8.53125 C 13.109375 -10.207031 12.847656 -11.488281 12.328125 -12.375 C 11.816406 -13.257812 10.863281 -13.703125 9.46875 -13.703125 C 8.4375 -13.703125 7.628906 -13.253906 7.046875 -12.359375 C 6.460938 -11.472656 6.171875 -10.1875 6.171875 -8.5 C 6.171875 -6.820312 6.460938 -5.554688 7.046875 -4.703125 C 7.640625 -3.859375 8.472656 -3.4375 9.546875 -3.4375 Z M 9.546875 -3.4375 "/></g></g><g transform="translate(231.33938, 66.108258)"><g><path d="M 9.546875 -17.515625 C 11.140625 -17.515625 12.507812 -17.207031 13.65625 -16.59375 C 14.800781 -15.988281 15.6875 -15.109375 16.3125 -13.953125 C 16.9375 -12.796875 17.25 -11.378906 17.25 -9.703125 L 17.25 -7.421875 L 6.171875 -7.421875 C 6.222656 -6.097656 6.617188 -5.0625 7.359375 -4.3125 C 8.097656 -3.5625 9.128906 -3.1875 10.453125 -3.1875 C 11.554688 -3.1875 12.5625 -3.296875 13.46875 -3.515625 C 14.382812 -3.742188 15.320312 -4.082031 16.28125 -4.53125 L 16.28125 -0.90625 C 15.4375 -0.488281 14.550781 -0.179688 13.625 0.015625 C 12.695312 0.210938 11.570312 0.3125 10.25 0.3125 C 8.519531 0.3125 6.988281 -0.00390625 5.65625 -0.640625 C 4.332031 -1.273438 3.296875 -2.242188 2.546875 -3.546875 C 1.796875 -4.847656 1.421875 -6.488281 1.421875 -8.46875 C 1.421875 -10.476562 1.757812 -12.148438 2.4375 -13.484375 C 3.113281 -14.828125 4.0625 -15.832031 5.28125 -16.5 C 6.507812 -17.175781 7.929688 -17.515625 9.546875 -17.515625 Z M 9.578125 -14.1875 C 8.671875 -14.1875 7.914062 -13.890625 7.3125 -13.296875 C 6.707031 -12.710938 6.363281 -11.796875 6.28125 -10.546875 L 12.859375 -10.546875 C 12.847656 -11.242188 12.722656 -11.863281 12.484375 -12.40625 C 12.242188 -12.957031 11.882812 -13.390625 11.40625 -13.703125 C 10.925781 -14.023438 10.316406 -14.1875 9.578125 -14.1875 Z M 9.578125 -14.1875 "/></g></g><g transform="translate(249.950219, 66.108258)"><g><path d="M 12.0625 -17.515625 C 12.289062 -17.515625 12.5625 -17.5 12.875 -17.46875 C 13.1875 -17.445312 13.441406 -17.414062 13.640625 -17.375 L 13.296875 -12.984375 C 13.140625 -13.035156 12.921875 -13.070312 12.640625 -13.09375 C 12.359375 -13.125 12.113281 -13.140625 11.90625 -13.140625 C 11.300781 -13.140625 10.710938 -13.0625 10.140625 -12.90625 C 9.578125 -12.75 9.066406 -12.5 8.609375 -12.15625 C 8.160156 -11.8125 7.804688 -11.359375 7.546875 -10.796875 C 7.285156 -10.242188 7.15625 -9.5625 7.15625 -8.75 L 7.15625 0 L 2.46875 0 L 2.46875 -17.203125 L 6.015625 -17.203125 L 6.703125 -14.296875 L 6.9375 -14.296875 C 7.269531 -14.890625 7.691406 -15.425781 8.203125 -15.90625 C 8.710938 -16.394531 9.289062 -16.785156 9.9375 -17.078125 C 10.59375 -17.367188 11.300781 -17.515625 12.0625 -17.515625 Z M 12.0625 -17.515625 "/></g></g><g transform="translate(264.254417, 66.108258)"><g><path d="M 14.453125 -5.109375 C 14.453125 -3.941406 14.175781 -2.953125 13.625 -2.140625 C 13.082031 -1.335938 12.265625 -0.726562 11.171875 -0.3125 C 10.085938 0.101562 8.738281 0.3125 7.125 0.3125 C 5.925781 0.3125 4.894531 0.234375 4.03125 0.078125 C 3.175781 -0.078125 2.316406 -0.332031 1.453125 -0.6875 L 1.453125 -4.5625 C 2.378906 -4.144531 3.378906 -3.800781 4.453125 -3.53125 C 5.523438 -3.257812 6.46875 -3.125 7.28125 -3.125 C 8.1875 -3.125 8.835938 -3.257812 9.234375 -3.53125 C 9.628906 -3.800781 9.828125 -4.15625 9.828125 -4.59375 C 9.828125 -4.882812 9.75 -5.144531 9.59375 -5.375 C 9.4375 -5.601562 9.09375 -5.863281 8.5625 -6.15625 C 8.039062 -6.445312 7.222656 -6.832031 6.109375 -7.3125 C 5.023438 -7.757812 4.140625 -8.210938 3.453125 -8.671875 C 2.765625 -9.128906 2.253906 -9.675781 1.921875 -10.3125 C 1.585938 -10.945312 1.421875 -11.75 1.421875 -12.71875 C 1.421875 -14.3125 2.035156 -15.507812 3.265625 -16.3125 C 4.503906 -17.113281 6.160156 -17.515625 8.234375 -17.515625 C 9.296875 -17.515625 10.3125 -17.40625 11.28125 -17.1875 C 12.25 -16.976562 13.25 -16.640625 14.28125 -16.171875 L 12.859375 -12.78125 C 12.003906 -13.144531 11.203125 -13.445312 10.453125 -13.6875 C 9.703125 -13.925781 8.9375 -14.046875 8.15625 -14.046875 C 7.46875 -14.046875 6.945312 -13.953125 6.59375 -13.765625 C 6.25 -13.578125 6.078125 -13.296875 6.078125 -12.921875 C 6.078125 -12.640625 6.164062 -12.390625 6.34375 -12.171875 C 6.519531 -11.960938 6.867188 -11.726562 7.390625 -11.46875 C 7.910156 -11.207031 8.671875 -10.867188 9.671875 -10.453125 C 10.648438 -10.054688 11.5 -9.640625 12.21875 -9.203125 C 12.9375 -8.765625 13.488281 -8.222656 13.875 -7.578125 C 14.257812 -6.941406 14.453125 -6.117188 14.453125 -5.109375 Z M 14.453125 -5.109375 "/></g></g><g transform="translate(279.912131, 66.108258)"><g><path d="M 1.796875 -2.203125 C 1.796875 -3.160156 2.0625 -3.832031 2.59375 -4.21875 C 3.125 -4.613281 3.757812 -4.8125 4.5 -4.8125 C 5.226562 -4.8125 5.859375 -4.613281 6.390625 -4.21875 C 6.921875 -3.832031 7.1875 -3.160156 7.1875 -2.203125 C 7.1875 -1.273438 6.921875 -0.601562 6.390625 -0.1875 C 5.859375 0.21875 5.226562 0.421875 4.5 0.421875 C 3.757812 0.421875 3.125 0.21875 2.59375 -0.1875 C 2.0625 -0.601562 1.796875 -1.273438 1.796875 -2.203125 Z M 1.796875 -2.203125 "/></g></g><g transform="translate(288.894553, 66.108258)"><g><path d="M 9.5 -17.546875 C 11.8125 -17.546875 13.582031 -17.039062 14.8125 -16.03125 C 16.039062 -15.03125 16.65625 -13.503906 16.65625 -11.453125 L 16.65625 0 L 13.375 0 L 12.46875 -2.34375 L 12.34375 -2.34375 C 11.851562 -1.726562 11.351562 -1.222656 10.84375 -0.828125 C 10.332031 -0.441406 9.742188 -0.15625 9.078125 0.03125 C 8.410156 0.21875 7.597656 0.3125 6.640625 0.3125 C 5.628906 0.3125 4.71875 0.117188 3.90625 -0.265625 C 3.101562 -0.660156 2.472656 -1.257812 2.015625 -2.0625 C 1.554688 -2.875 1.328125 -3.898438 1.328125 -5.140625 C 1.328125 -6.960938 1.96875 -8.304688 3.25 -9.171875 C 4.53125 -10.035156 6.453125 -10.515625 9.015625 -10.609375 L 12 -10.703125 L 12 -11.453125 C 12 -12.359375 11.757812 -13.019531 11.28125 -13.4375 C 10.8125 -13.863281 10.160156 -14.078125 9.328125 -14.078125 C 8.492188 -14.078125 7.675781 -13.957031 6.875 -13.71875 C 6.070312 -13.476562 5.269531 -13.179688 4.46875 -12.828125 L 2.921875 -16 C 3.835938 -16.476562 4.859375 -16.851562 5.984375 -17.125 C 7.117188 -17.40625 8.289062 -17.546875 9.5 -17.546875 Z M 12 -7.96875 L 10.1875 -7.90625 C 8.664062 -7.863281 7.609375 -7.59375 7.015625 -7.09375 C 6.429688 -6.59375 6.140625 -5.929688 6.140625 -5.109375 C 6.140625 -4.390625 6.347656 -3.878906 6.765625 -3.578125 C 7.179688 -3.273438 7.726562 -3.125 8.40625 -3.125 C 9.414062 -3.125 10.265625 -3.421875 10.953125 -4.015625 C 11.648438 -4.609375 12 -5.453125 12 -6.546875 Z M 12 -7.96875 "/></g></g><g transform="translate(307.920675, 66.108258)"><g><path d="M 7.15625 -17.203125 L 7.15625 0 L 2.46875 0 L 2.46875 -17.203125 Z M 4.8125 -23.9375 C 5.507812 -23.9375 6.109375 -23.773438 6.609375 -23.453125 C 7.117188 -23.128906 7.375 -22.523438 7.375 -21.640625 C 7.375 -20.765625 7.117188 -20.160156 6.609375 -19.828125 C 6.109375 -19.492188 5.507812 -19.328125 4.8125 -19.328125 C 4.101562 -19.328125 3.5 -19.492188 3 -19.828125 C 2.507812 -20.160156 2.265625 -20.765625 2.265625 -21.640625 C 2.265625 -22.523438 2.507812 -23.128906 3 -23.453125 C 3.5 -23.773438 4.101562 -23.9375 4.8125 -23.9375 Z M 4.8125 -23.9375 "/></g></g></g><g clip-path="url(#475c7d2ad8)"><path fill="#7bed9f" d="M 67.867188 39.589844 L 99.414062 39.589844 L 99.414062 69.496094 L 67.867188 69.496094 Z M 67.867188 39.589844 " fill-opacity="1" fill-rule="nonzero"/></g><g clip-path="url(#b15373b28d)"><path fill="#0d4b21" d="M 71.976562 65.679688 L 93.945312 44.035156 L 93.945312 65.679688 Z M 71.976562 65.679688 " fill-opacity="1" fill-rule="nonzero"/></g></svg>