<svg xmlns="http://www.w3.org/2000/svg" xmlns:xlink="http://www.w3.org/1999/xlink" width="374" zoomAndPan="magnify" viewBox="0 0 280.5 57.749997" height="77" preserveAspectRatio="xMidYMid meet" version="1.0"><defs><g/><clipPath id="8ace65a276"><path d="M 0.679688 13.382812 L 37.855469 13.382812 L 37.855469 47.105469 L 0.679688 47.105469 Z M 0.679688 13.382812 " clip-rule="nonzero"/></clipPath><clipPath id="16097b2bfb"><path d="M 4.933594 17.785156 L 30.164062 17.785156 L 30.164062 43 L 4.933594 43 Z M 4.933594 17.785156 " clip-rule="nonzero"/></clipPath></defs><g fill="#000000" fill-opacity="1"><g transform="translate(20.759931, 39.787596)"><g/></g><g transform="translate(28.907278, 39.787596)"><g/></g><g transform="translate(37.054626, 39.787596)"><g/></g></g><g fill="#000000" fill-opacity="1"><g transform="translate(45.204889, 39.787596)"><g><path d="M 12.953125 0 L 8.21875 0 L 8.21875 -12.953125 C 8.21875 -13.304688 8.222656 -13.742188 8.234375 -14.265625 C 8.242188 -14.796875 8.257812 -15.335938 8.28125 -15.890625 C 8.300781 -16.453125 8.320312 -16.957031 8.34375 -17.40625 C 8.226562 -17.269531 8 -17.039062 7.65625 -16.71875 C 7.320312 -16.40625 7.003906 -16.117188 6.703125 -15.859375 L 4.140625 -13.796875 L 1.859375 -16.640625 L 9.0625 -22.390625 L 12.953125 -22.390625 Z M 12.953125 0 "/></g></g><g transform="translate(63.138242, 39.787596)"><g><path d="M 16.78125 -11.1875 C 16.78125 -9.382812 16.640625 -7.769531 16.359375 -6.34375 C 16.078125 -4.925781 15.628906 -3.722656 15.015625 -2.734375 C 14.398438 -1.742188 13.59375 -0.988281 12.59375 -0.46875 C 11.59375 0.0507812 10.375 0.3125 8.9375 0.3125 C 7.144531 0.3125 5.671875 -0.144531 4.515625 -1.0625 C 3.359375 -1.976562 2.503906 -3.296875 1.953125 -5.015625 C 1.410156 -6.734375 1.140625 -8.789062 1.140625 -11.1875 C 1.140625 -13.613281 1.390625 -15.6875 1.890625 -17.40625 C 2.398438 -19.125 3.222656 -20.441406 4.359375 -21.359375 C 5.503906 -22.273438 7.03125 -22.734375 8.9375 -22.734375 C 10.726562 -22.734375 12.203125 -22.273438 13.359375 -21.359375 C 14.515625 -20.453125 15.375 -19.140625 15.9375 -17.421875 C 16.5 -15.703125 16.78125 -13.625 16.78125 -11.1875 Z M 5.828125 -11.1875 C 5.828125 -9.488281 5.921875 -8.066406 6.109375 -6.921875 C 6.304688 -5.785156 6.628906 -4.929688 7.078125 -4.359375 C 7.523438 -3.785156 8.144531 -3.5 8.9375 -3.5 C 9.726562 -3.5 10.347656 -3.78125 10.796875 -4.34375 C 11.253906 -4.914062 11.578125 -5.769531 11.765625 -6.90625 C 11.960938 -8.050781 12.0625 -9.476562 12.0625 -11.1875 C 12.0625 -12.894531 11.960938 -14.320312 11.765625 -15.46875 C 11.578125 -16.613281 11.253906 -17.472656 10.796875 -18.046875 C 10.347656 -18.617188 9.726562 -18.90625 8.9375 -18.90625 C 8.144531 -18.90625 7.523438 -18.617188 7.078125 -18.046875 C 6.628906 -17.472656 6.304688 -16.613281 6.109375 -15.46875 C 5.921875 -14.320312 5.828125 -12.894531 5.828125 -11.1875 Z M 5.828125 -11.1875 "/></g></g><g transform="translate(81.071594, 39.787596)"><g><path d="M 20.921875 0 L 15.5 0 L 10.296875 -8.46875 L 5.078125 0 L 0 0 L 7.421875 -11.546875 L 0.46875 -22.390625 L 5.71875 -22.390625 L 10.53125 -14.328125 L 15.265625 -22.390625 L 20.375 -22.390625 L 13.359375 -11.28125 Z M 20.921875 0 "/></g></g><g transform="translate(101.991286, 39.787596)"><g><path d="M 11.453125 0 L 6.703125 0 L 6.703125 -18.4375 L 0.625 -18.4375 L 0.625 -22.390625 L 17.53125 -22.390625 L 17.53125 -18.4375 L 11.453125 -18.4375 Z M 11.453125 0 "/></g></g><g transform="translate(120.154356, 39.787596)"><g><path d="M 12 -17.4375 C 12.238281 -17.4375 12.515625 -17.421875 12.828125 -17.390625 C 13.140625 -17.367188 13.390625 -17.335938 13.578125 -17.296875 L 13.234375 -12.921875 C 13.078125 -12.972656 12.859375 -13.007812 12.578125 -13.03125 C 12.296875 -13.0625 12.054688 -13.078125 11.859375 -13.078125 C 11.253906 -13.078125 10.664062 -13 10.09375 -12.84375 C 9.53125 -12.695312 9.023438 -12.453125 8.578125 -12.109375 C 8.128906 -11.765625 7.773438 -11.3125 7.515625 -10.75 C 7.253906 -10.195312 7.125 -9.519531 7.125 -8.71875 L 7.125 0 L 2.453125 0 L 2.453125 -17.125 L 5.984375 -17.125 L 6.671875 -14.234375 L 6.90625 -14.234375 C 7.238281 -14.816406 7.65625 -15.347656 8.15625 -15.828125 C 8.664062 -16.316406 9.242188 -16.707031 9.890625 -17 C 10.546875 -17.289062 11.25 -17.4375 12 -17.4375 Z M 12 -17.4375 "/></g></g><g transform="translate(134.396899, 39.787596)"><g><path d="M 9.46875 -17.46875 C 11.757812 -17.46875 13.515625 -16.96875 14.734375 -15.96875 C 15.960938 -14.96875 16.578125 -13.445312 16.578125 -11.40625 L 16.578125 0 L 13.328125 0 L 12.421875 -2.328125 L 12.296875 -2.328125 C 11.804688 -1.710938 11.304688 -1.210938 10.796875 -0.828125 C 10.285156 -0.441406 9.695312 -0.15625 9.03125 0.03125 C 8.363281 0.21875 7.554688 0.3125 6.609375 0.3125 C 5.597656 0.3125 4.691406 0.117188 3.890625 -0.265625 C 3.085938 -0.660156 2.457031 -1.257812 2 -2.0625 C 1.539062 -2.863281 1.3125 -3.878906 1.3125 -5.109375 C 1.3125 -6.929688 1.945312 -8.269531 3.21875 -9.125 C 4.5 -9.988281 6.414062 -10.46875 8.96875 -10.5625 L 11.9375 -10.65625 L 11.9375 -11.40625 C 11.9375 -12.300781 11.703125 -12.957031 11.234375 -13.375 C 10.765625 -13.800781 10.113281 -14.015625 9.28125 -14.015625 C 8.445312 -14.015625 7.632812 -13.894531 6.84375 -13.65625 C 6.050781 -13.425781 5.253906 -13.128906 4.453125 -12.765625 L 2.90625 -15.921875 C 3.8125 -16.398438 4.828125 -16.773438 5.953125 -17.046875 C 7.085938 -17.328125 8.257812 -17.46875 9.46875 -17.46875 Z M 11.9375 -7.9375 L 10.140625 -7.875 C 8.628906 -7.832031 7.578125 -7.5625 6.984375 -7.0625 C 6.398438 -6.5625 6.109375 -5.898438 6.109375 -5.078125 C 6.109375 -4.367188 6.316406 -3.863281 6.734375 -3.5625 C 7.148438 -3.257812 7.695312 -3.109375 8.375 -3.109375 C 9.375 -3.109375 10.21875 -3.40625 10.90625 -4 C 11.59375 -4.59375 11.9375 -5.429688 11.9375 -6.515625 Z M 11.9375 -7.9375 "/></g></g><g transform="translate(153.341012, 39.787596)"><g><path d="M 7.875 0.3125 C 5.957031 0.3125 4.398438 -0.4375 3.203125 -1.9375 C 2.003906 -3.4375 1.40625 -5.632812 1.40625 -8.53125 C 1.40625 -11.457031 2.007812 -13.671875 3.21875 -15.171875 C 4.4375 -16.679688 6.03125 -17.4375 8 -17.4375 C 8.8125 -17.4375 9.53125 -17.320312 10.15625 -17.09375 C 10.78125 -16.875 11.316406 -16.578125 11.765625 -16.203125 C 12.222656 -15.828125 12.609375 -15.398438 12.921875 -14.921875 L 13.078125 -14.921875 C 13.015625 -15.253906 12.9375 -15.738281 12.84375 -16.375 C 12.757812 -17.007812 12.71875 -17.664062 12.71875 -18.34375 L 12.71875 -23.828125 L 17.40625 -23.828125 L 17.40625 0 L 13.828125 0 L 12.921875 -2.21875 L 12.71875 -2.21875 C 12.425781 -1.75 12.054688 -1.320312 11.609375 -0.9375 C 11.171875 -0.5625 10.644531 -0.257812 10.03125 -0.03125 C 9.414062 0.195312 8.695312 0.3125 7.875 0.3125 Z M 9.515625 -3.421875 C 10.785156 -3.421875 11.679688 -3.800781 12.203125 -4.5625 C 12.734375 -5.320312 13.015625 -6.46875 13.046875 -8 L 13.046875 -8.5 C 13.046875 -10.164062 12.789062 -11.4375 12.28125 -12.3125 C 11.769531 -13.195312 10.820312 -13.640625 9.4375 -13.640625 C 8.40625 -13.640625 7.597656 -13.195312 7.015625 -12.3125 C 6.429688 -11.425781 6.140625 -10.144531 6.140625 -8.46875 C 6.140625 -6.789062 6.429688 -5.53125 7.015625 -4.6875 C 7.609375 -3.84375 8.441406 -3.421875 9.515625 -3.421875 Z M 9.515625 -3.421875 "/></g></g><g transform="translate(173.188685, 39.787596)"><g><path d="M 9.515625 -17.4375 C 11.085938 -17.4375 12.445312 -17.132812 13.59375 -16.53125 C 14.738281 -15.925781 15.625 -15.046875 16.25 -13.890625 C 16.875 -12.734375 17.1875 -11.320312 17.1875 -9.65625 L 17.1875 -7.390625 L 6.140625 -7.390625 C 6.191406 -6.078125 6.585938 -5.046875 7.328125 -4.296875 C 8.066406 -3.546875 9.09375 -3.171875 10.40625 -3.171875 C 11.5 -3.171875 12.5 -3.28125 13.40625 -3.5 C 14.320312 -3.726562 15.257812 -4.066406 16.21875 -4.515625 L 16.21875 -0.90625 C 15.363281 -0.488281 14.472656 -0.179688 13.546875 0.015625 C 12.628906 0.210938 11.515625 0.3125 10.203125 0.3125 C 8.484375 0.3125 6.960938 -0.00390625 5.640625 -0.640625 C 4.316406 -1.273438 3.28125 -2.238281 2.53125 -3.53125 C 1.78125 -4.832031 1.40625 -6.46875 1.40625 -8.4375 C 1.40625 -10.4375 1.742188 -12.101562 2.421875 -13.4375 C 3.097656 -14.769531 4.046875 -15.769531 5.265625 -16.4375 C 6.484375 -17.101562 7.898438 -17.4375 9.515625 -17.4375 Z M 9.546875 -14.125 C 8.628906 -14.125 7.875 -13.832031 7.28125 -13.25 C 6.6875 -12.664062 6.34375 -11.75 6.25 -10.5 L 12.796875 -10.5 C 12.785156 -11.195312 12.660156 -11.816406 12.421875 -12.359375 C 12.179688 -12.898438 11.820312 -13.328125 11.34375 -13.640625 C 10.875 -13.960938 10.273438 -14.125 9.546875 -14.125 Z M 9.546875 -14.125 "/></g></g><g transform="translate(191.719305, 39.787596)"><g><path d="M 12 -17.4375 C 12.238281 -17.4375 12.515625 -17.421875 12.828125 -17.390625 C 13.140625 -17.367188 13.390625 -17.335938 13.578125 -17.296875 L 13.234375 -12.921875 C 13.078125 -12.972656 12.859375 -13.007812 12.578125 -13.03125 C 12.296875 -13.0625 12.054688 -13.078125 11.859375 -13.078125 C 11.253906 -13.078125 10.664062 -13 10.09375 -12.84375 C 9.53125 -12.695312 9.023438 -12.453125 8.578125 -12.109375 C 8.128906 -11.765625 7.773438 -11.3125 7.515625 -10.75 C 7.253906 -10.195312 7.125 -9.519531 7.125 -8.71875 L 7.125 0 L 2.453125 0 L 2.453125 -17.125 L 5.984375 -17.125 L 6.671875 -14.234375 L 6.90625 -14.234375 C 7.238281 -14.816406 7.65625 -15.347656 8.15625 -15.828125 C 8.664062 -16.316406 9.242188 -16.707031 9.890625 -17 C 10.546875 -17.289062 11.25 -17.4375 12 -17.4375 Z M 12 -17.4375 "/></g></g><g transform="translate(205.961848, 39.787596)"><g><path d="M 14.390625 -5.078125 C 14.390625 -3.921875 14.113281 -2.941406 13.5625 -2.140625 C 13.019531 -1.335938 12.207031 -0.726562 11.125 -0.3125 C 10.050781 0.101562 8.707031 0.3125 7.09375 0.3125 C 5.894531 0.3125 4.867188 0.234375 4.015625 0.078125 C 3.160156 -0.078125 2.300781 -0.332031 1.4375 -0.6875 L 1.4375 -4.546875 C 2.363281 -4.128906 3.359375 -3.785156 4.421875 -3.515625 C 5.492188 -3.242188 6.4375 -3.109375 7.25 -3.109375 C 8.15625 -3.109375 8.800781 -3.242188 9.1875 -3.515625 C 9.582031 -3.785156 9.78125 -4.140625 9.78125 -4.578125 C 9.78125 -4.859375 9.703125 -5.113281 9.546875 -5.34375 C 9.390625 -5.582031 9.050781 -5.84375 8.53125 -6.125 C 8.007812 -6.414062 7.191406 -6.796875 6.078125 -7.265625 C 5.003906 -7.722656 4.125 -8.179688 3.4375 -8.640625 C 2.75 -9.097656 2.238281 -9.640625 1.90625 -10.265625 C 1.570312 -10.890625 1.40625 -11.6875 1.40625 -12.65625 C 1.40625 -14.238281 2.019531 -15.429688 3.25 -16.234375 C 4.476562 -17.035156 6.125 -17.4375 8.1875 -17.4375 C 9.25 -17.4375 10.257812 -17.328125 11.21875 -17.109375 C 12.1875 -16.898438 13.179688 -16.5625 14.203125 -16.09375 L 12.796875 -12.71875 C 11.953125 -13.09375 11.15625 -13.394531 10.40625 -13.625 C 9.65625 -13.863281 8.890625 -13.984375 8.109375 -13.984375 C 7.429688 -13.984375 6.914062 -13.890625 6.5625 -13.703125 C 6.21875 -13.515625 6.046875 -13.234375 6.046875 -12.859375 C 6.046875 -12.585938 6.132812 -12.34375 6.3125 -12.125 C 6.488281 -11.914062 6.832031 -11.679688 7.34375 -11.421875 C 7.863281 -11.160156 8.625 -10.820312 9.625 -10.40625 C 10.601562 -10.007812 11.445312 -9.59375 12.15625 -9.15625 C 12.875 -8.726562 13.425781 -8.191406 13.8125 -7.546875 C 14.195312 -6.910156 14.390625 -6.085938 14.390625 -5.078125 Z M 14.390625 -5.078125 "/></g></g><g transform="translate(221.552072, 39.787596)"><g><path d="M 1.796875 -2.1875 C 1.796875 -3.144531 2.054688 -3.816406 2.578125 -4.203125 C 3.109375 -4.597656 3.742188 -4.796875 4.484375 -4.796875 C 5.210938 -4.796875 5.835938 -4.597656 6.359375 -4.203125 C 6.890625 -3.816406 7.15625 -3.144531 7.15625 -2.1875 C 7.15625 -1.269531 6.890625 -0.609375 6.359375 -0.203125 C 5.835938 0.203125 5.210938 0.40625 4.484375 0.40625 C 3.742188 0.40625 3.109375 0.203125 2.578125 -0.203125 C 2.054688 -0.609375 1.796875 -1.269531 1.796875 -2.1875 Z M 1.796875 -2.1875 "/></g></g><g transform="translate(230.495776, 39.787596)"><g><path d="M 9.46875 -17.46875 C 11.757812 -17.46875 13.515625 -16.96875 14.734375 -15.96875 C 15.960938 -14.96875 16.578125 -13.445312 16.578125 -11.40625 L 16.578125 0 L 13.328125 0 L 12.421875 -2.328125 L 12.296875 -2.328125 C 11.804688 -1.710938 11.304688 -1.210938 10.796875 -0.828125 C 10.285156 -0.441406 9.695312 -0.15625 9.03125 0.03125 C 8.363281 0.21875 7.554688 0.3125 6.609375 0.3125 C 5.597656 0.3125 4.691406 0.117188 3.890625 -0.265625 C 3.085938 -0.660156 2.457031 -1.257812 2 -2.0625 C 1.539062 -2.863281 1.3125 -3.878906 1.3125 -5.109375 C 1.3125 -6.929688 1.945312 -8.269531 3.21875 -9.125 C 4.5 -9.988281 6.414062 -10.46875 8.96875 -10.5625 L 11.9375 -10.65625 L 11.9375 -11.40625 C 11.9375 -12.300781 11.703125 -12.957031 11.234375 -13.375 C 10.765625 -13.800781 10.113281 -14.015625 9.28125 -14.015625 C 8.445312 -14.015625 7.632812 -13.894531 6.84375 -13.65625 C 6.050781 -13.425781 5.253906 -13.128906 4.453125 -12.765625 L 2.90625 -15.921875 C 3.8125 -16.398438 4.828125 -16.773438 5.953125 -17.046875 C 7.085938 -17.328125 8.257812 -17.46875 9.46875 -17.46875 Z M 11.9375 -7.9375 L 10.140625 -7.875 C 8.628906 -7.832031 7.578125 -7.5625 6.984375 -7.0625 C 6.398438 -6.5625 6.109375 -5.898438 6.109375 -5.078125 C 6.109375 -4.367188 6.316406 -3.863281 6.734375 -3.5625 C 7.148438 -3.257812 7.695312 -3.109375 8.375 -3.109375 C 9.375 -3.109375 10.21875 -3.40625 10.90625 -4 C 11.59375 -4.59375 11.9375 -5.429688 11.9375 -6.515625 Z M 11.9375 -7.9375 "/></g></g><g transform="translate(249.439889, 39.787596)"><g><path d="M 7.125 -17.125 L 7.125 0 L 2.453125 0 L 2.453125 -17.125 Z M 4.796875 -23.828125 C 5.484375 -23.828125 6.078125 -23.664062 6.578125 -23.34375 C 7.078125 -23.019531 7.328125 -22.421875 7.328125 -21.546875 C 7.328125 -20.679688 7.078125 -20.082031 6.578125 -19.75 C 6.078125 -19.414062 5.484375 -19.25 4.796875 -19.25 C 4.085938 -19.25 3.484375 -19.414062 2.984375 -19.75 C 2.492188 -20.082031 2.25 -20.679688 2.25 -21.546875 C 2.25 -22.421875 2.492188 -23.019531 2.984375 -23.34375 C 3.484375 -23.664062 4.085938 -23.828125 4.796875 -23.828125 Z M 4.796875 -23.828125 "/></g></g></g><g clip-path="url(#8ace65a276)"><path fill="#7bed9f" d="M 0.679688 13.382812 L 37.832031 13.382812 L 37.832031 47.105469 L 0.679688 47.105469 Z M 0.679688 13.382812 " fill-opacity="1" fill-rule="nonzero"/></g><g clip-path="url(#16097b2bfb)"><path fill="#0d4b21" d="M 4.773438 42.988281 L 30.320312 17.8125 L 30.320312 42.988281 Z M 4.773438 42.988281 " fill-opacity="1" fill-rule="nonzero"/></g></svg>