<svg xmlns="http://www.w3.org/2000/svg" width="1200" height="195" viewBox="0 0 1200 195" fill="none"><g clip-path="url(#clip0_3722_464)"><path d="M215.797 48.606H239.69C249.859 48.606 257.598 50.0458 262.908 52.9254C268.173 55.805 270.828 60.8444 270.828 68.1334C270.828 72.4978 269.793 76.1875 267.768 79.2024C265.743 82.2167 262.818 84.0619 258.994 84.6914V85.2316C261.513 85.8165 263.808 86.7162 265.923 87.9758C268.038 89.2361 269.703 91.0806 270.918 93.5106C272.133 95.94 272.762 99.1798 272.762 103.184C272.762 110.158 270.243 115.603 265.158 119.562C260.118 123.522 253.234 125.501 244.55 125.501H215.797V48.606ZM232.04 79.0673H241.535C246.259 79.0673 249.544 78.3474 251.389 76.8622C253.234 75.3777 254.134 73.1732 254.134 70.2481C254.134 67.3236 253.054 65.209 250.894 63.9041C248.734 62.5992 245.314 61.9693 240.68 61.9693H232.04V79.0673ZM232.04 91.9808V112.003H242.705C247.564 112.003 250.984 111.058 252.919 109.168C254.854 107.279 255.844 104.759 255.844 101.565C255.844 98.6848 254.854 96.3898 252.874 94.6352C250.894 92.8805 247.339 91.9808 242.165 91.9808H232.04Z" fill="#02194A"></path><path d="M305.566 43.5935H289.547V125.438H305.566V43.5935Z" fill="#02194A"></path><path d="M379.045 66.6854V125.493H366.761L364.601 117.934H363.746C361.856 120.948 359.292 123.154 356.052 124.503C352.767 125.853 349.302 126.528 345.658 126.528C339.313 126.528 334.273 124.818 330.449 121.398C326.624 117.979 324.734 112.534 324.734 104.975V66.6401H340.798V100.971C340.798 105.2 341.563 108.395 343.048 110.51C344.533 112.625 346.963 113.705 350.247 113.705C355.107 113.705 358.482 112.04 360.282 108.71C362.081 105.381 362.982 100.566 362.982 94.3116V66.6401H379.045V66.6854Z" fill="#02194A"></path><path d="M422.742 65.5972C430.841 65.5972 437.275 67.8921 442 72.5267C446.725 77.1606 449.11 83.7301 449.11 92.2792V100.018H411.222C411.357 104.517 412.707 108.117 415.272 110.682C417.837 113.246 421.347 114.551 425.891 114.551C429.626 114.551 433.046 114.191 436.195 113.426C439.3 112.661 442.54 111.491 445.825 109.917V122.29C442.9 123.73 439.84 124.765 436.69 125.485C433.541 126.16 429.671 126.52 425.171 126.52C419.277 126.52 414.102 125.44 409.557 123.235C405.013 121.031 401.458 117.746 398.893 113.337C396.283 108.927 395.023 103.302 395.023 96.4633C395.023 89.6242 396.193 83.955 398.533 79.3205C400.873 74.7312 404.113 71.2664 408.298 68.9721C412.392 66.7223 417.252 65.5972 422.742 65.5972ZM422.877 76.9809C419.726 76.9809 417.117 77.9704 415.137 79.9952C413.112 82.02 411.942 85.1248 411.582 89.3541H434.081C433.991 85.8447 433.046 82.875 431.246 80.5355C429.401 78.1959 426.611 76.9809 422.877 76.9809Z" fill="#02194A"></path><path d="M480.929 43.5935V62.6712C480.929 64.876 480.839 67.0805 480.704 69.2404C480.569 71.4003 480.434 73.0652 480.254 74.2796H480.884C482.459 71.8501 484.574 69.7801 487.228 68.0707C489.883 66.4058 493.348 65.5508 497.578 65.5508C504.192 65.5508 509.547 68.1153 513.597 73.2448C517.691 78.3744 519.761 85.9334 519.761 95.9225C519.761 105.956 517.691 113.56 513.506 118.735C509.367 123.909 503.878 126.473 497.128 126.473C492.808 126.473 489.434 125.709 486.959 124.179C484.484 122.649 482.459 120.894 480.884 118.959H479.804L477.104 125.438H464.82V43.5935H480.929ZM492.448 78.3744C488.308 78.3744 485.338 79.6793 483.629 82.289C481.919 84.8987 481.019 88.8579 480.929 94.0773V95.7874C480.929 101.457 481.784 105.821 483.449 108.881C485.114 111.94 488.218 113.47 492.673 113.47C495.958 113.47 498.613 111.94 500.548 108.881C502.482 105.821 503.472 101.411 503.472 95.6969C503.472 89.9378 502.482 85.6187 500.502 82.7388C498.478 79.859 495.823 78.3744 492.448 78.3744Z" fill="#02194A"></path><path d="M559.937 65.5972C568.037 65.5972 574.471 67.8921 579.196 72.5267C583.921 77.1606 586.305 83.7301 586.305 92.2792V100.018H548.418C548.553 104.517 549.903 108.117 552.467 110.682C555.033 113.246 558.542 114.551 563.087 114.551C566.821 114.551 570.241 114.191 573.391 113.426C576.496 112.661 579.736 111.491 583.02 109.917V122.29C580.096 123.73 577.036 124.765 573.886 125.485C570.736 126.16 566.867 126.52 562.367 126.52C556.472 126.52 551.297 125.44 546.753 123.235C542.208 121.031 538.653 117.746 536.089 113.337C533.479 108.927 532.219 103.302 532.219 96.4633C532.219 89.6242 533.389 83.955 535.729 79.3205C538.069 74.7312 541.309 71.2664 545.493 68.9721C549.588 66.7223 554.402 65.5972 559.937 65.5972ZM560.072 76.9809C556.922 76.9809 554.313 77.9704 552.332 79.9952C550.308 82.02 549.137 85.1248 548.777 89.3541H571.276C571.186 85.8447 570.241 82.875 568.441 80.5355C566.551 78.1959 563.807 76.9809 560.072 76.9809Z" fill="#02194A"></path><path d="M634.884 65.5972C635.65 65.5972 636.599 65.6424 637.68 65.687C638.754 65.7775 639.608 65.8673 640.243 66.0024L639.074 81.0751C638.484 80.9401 637.768 80.8056 636.819 80.7152C635.877 80.6253 635.066 80.5355 634.35 80.5355C631.604 80.5355 628.991 81.0305 626.473 81.9754C623.953 82.9649 621.928 84.4947 620.398 86.6545C618.868 88.8144 618.103 91.7389 618.103 95.4738V125.395H602.039V66.6771H614.189L616.573 76.5757H617.338C619.048 73.5614 621.433 70.9963 624.448 68.837C627.462 66.6771 630.926 65.5972 634.884 65.5972Z" fill="#02194A"></path><path d="M686.454 65.5972C687.258 65.5972 688.163 65.6424 689.243 65.687C690.318 65.7775 691.179 65.8673 691.807 66.0024L690.638 81.0751C690.048 80.9401 689.287 80.8056 688.383 80.7152C687.44 80.6253 686.63 80.5355 685.914 80.5355C683.168 80.5355 680.554 81.0305 678.035 81.9754C675.516 82.9649 673.493 84.4947 671.96 86.6545C670.433 88.8144 669.666 91.7389 669.666 95.4738V125.395H653.602V66.6771H665.752L668.14 76.5757H668.9C670.609 73.5614 672.996 70.9963 676.012 68.837C679.028 66.6771 682.49 65.5972 686.454 65.5972Z" fill="#02194A"></path><path d="M696.82 66.6953H714.368L725.438 99.7665C726.022 101.431 726.431 103.051 726.745 104.716C727.015 106.381 727.241 108.135 727.373 109.98H727.687C727.913 108.135 728.184 106.335 728.542 104.716C728.906 103.051 729.352 101.431 729.937 99.7665L740.831 66.6953H758.064L733.178 133.017C730.885 139.137 727.599 143.681 723.371 146.741C719.137 149.8 714.236 151.33 708.613 151.33C706.722 151.33 705.145 151.24 703.888 151.06C702.582 150.88 701.457 150.7 700.42 150.475V137.742C701.143 137.877 702.085 138.011 703.21 138.192C704.334 138.327 705.553 138.417 706.766 138.417C710.14 138.417 712.797 137.382 714.732 135.357C716.667 133.332 718.15 130.858 719.137 127.978L720.085 125.053L696.82 66.6953Z" fill="#02194A"></path><path d="M804.506 125.457L781.241 60.0795H780.795C780.927 61.6093 781.059 63.5441 781.153 65.9289C781.241 68.3137 781.329 70.9681 781.423 73.8027C781.511 76.6373 781.511 79.3821 781.511 82.037V125.411H770.938V48.606H787.587L809.683 110.293H810.129L832.854 48.606H849.415V125.501H838.119V81.4522C838.119 78.9323 838.163 76.3678 838.301 73.7129C838.389 71.0579 838.521 68.5387 838.615 66.1985C838.703 63.8143 838.791 61.8343 838.885 60.2595H838.433L814.54 125.501H804.506V125.457Z" fill="#02194A"></path><path d="M893.756 66.3135C901 66.3135 906.441 67.9337 910.041 71.0831C913.685 74.2777 915.488 79.2722 915.488 86.1112V125.437H907.433L905.184 117.337H904.732C902.212 120.487 899.605 122.827 896.816 124.266C894.07 125.751 890.244 126.471 885.337 126.471C880.072 126.471 875.756 125.077 872.288 122.242C868.826 119.407 867.117 114.953 867.117 108.969C867.117 102.984 869.366 98.4844 873.865 95.4701C878.363 92.4106 885.205 90.7458 894.384 90.4756L904.279 90.1609V86.8758C904.279 82.6465 903.337 79.6322 901.358 77.8769C899.423 76.1222 896.677 75.2226 893.165 75.2226C890.244 75.2226 887.41 75.6724 884.665 76.5274C881.919 77.3825 879.312 78.4172 876.786 79.6322L873.142 71.3532C875.888 69.9133 878.991 68.6983 882.548 67.7534C886.148 66.8085 889.886 66.3135 893.756 66.3135ZM904.192 97.5396L896.451 97.7645C889.835 98.0346 885.293 99.1598 882.73 101.094C880.166 103.029 878.904 105.684 878.904 109.058C878.904 112.073 879.802 114.278 881.605 115.627C883.402 116.977 885.745 117.697 888.579 117.697C893.033 117.697 896.765 116.438 899.737 113.918C902.709 111.398 904.192 107.664 904.192 102.624V97.5396Z" fill="#02194A"></path><path d="M964.352 66.3135C966.645 66.3135 968.756 66.4938 970.691 66.8538L969.523 77.5175C967.632 77.0225 965.697 76.7523 963.718 76.7523C960.796 76.7523 958.051 77.4723 955.531 78.9122C953.012 80.3521 950.982 82.4216 949.456 85.1211C947.923 87.8213 947.163 91.0605 947.163 94.8852V125.481H935.734V67.4387H944.775L946.258 77.787H946.71C948.513 74.6829 950.895 72.028 953.91 69.7782C956.926 67.4833 960.432 66.3135 964.352 66.3135Z" fill="#02194A"></path><path d="M995.502 43.5935V84.4935C995.502 85.9334 995.408 87.6429 995.276 89.6677C995.138 91.6925 995.006 93.4924 994.962 95.0674H995.276C996.087 93.9875 997.167 92.5928 998.562 90.7929C999.957 89.0382 1001.21 87.5983 1002.29 86.4285L1020.07 67.3507H1033.3L1009.95 92.2328L1034.83 125.393H1021.37L1002.21 99.4318L995.546 105.056V125.393H984.25V43.5935H995.502Z" fill="#02194A"></path><path d="M1069.93 66.3135C1077.53 66.3135 1083.52 68.653 1087.93 73.378C1092.29 78.0572 1094.5 84.4916 1094.5 92.5903V98.8444H1055.53C1055.66 104.784 1057.24 109.373 1060.21 112.523C1063.18 115.672 1067.37 117.247 1072.76 117.247C1076.5 117.247 1079.83 116.932 1082.71 116.213C1085.63 115.537 1088.6 114.503 1091.71 113.153V122.602C1088.79 123.951 1085.81 124.942 1082.89 125.571C1079.97 126.201 1076.45 126.471 1072.31 126.471C1066.73 126.471 1061.79 125.346 1057.47 123.142C1053.14 120.892 1049.81 117.607 1047.39 113.243C1045 108.879 1043.79 103.434 1043.79 96.8648C1043.79 90.3406 1044.87 84.8064 1047.07 80.2617C1049.27 75.7622 1052.29 72.2529 1056.2 69.8681C1060.07 67.5285 1064.67 66.3135 1069.93 66.3135ZM1069.93 75.1773C1065.84 75.1773 1062.55 76.4822 1060.07 79.1817C1057.6 81.8367 1056.16 85.6162 1055.71 90.4756H1083.07C1082.98 85.9762 1081.9 82.2865 1079.78 79.4519C1077.63 76.5727 1074.39 75.1773 1069.93 75.1773Z" fill="#02194A"></path><path d="M1132.24 117.261C1135.48 117.261 1138.36 116.811 1140.96 115.867V124.505C1139.75 125.09 1138.09 125.54 1136.01 125.945C1133.95 126.351 1131.83 126.53 1129.76 126.53C1126.61 126.53 1123.69 125.991 1121.08 124.911C1118.47 123.831 1116.35 121.986 1114.78 119.286C1113.2 116.632 1112.39 112.942 1112.39 108.218V76.1365H1104.34V70.9623L1112.84 66.6426L1116.84 54.3591H1123.87V67.4078H1140.47V76.1365H1123.87V107.993C1123.87 111.142 1124.63 113.482 1126.16 115.011C1127.7 116.497 1129.72 117.261 1132.24 117.261Z" fill="#02194A"></path><path d="M1193.83 109.066C1193.83 114.825 1191.76 119.145 1187.62 122.115C1183.48 125.039 1177.68 126.524 1170.21 126.524C1166.11 126.524 1162.6 126.254 1159.72 125.669C1156.8 125.085 1154.14 124.184 1151.71 122.97V112.981C1154.24 114.196 1157.2 115.276 1160.58 116.265C1164 117.255 1167.33 117.705 1170.52 117.705C1174.84 117.705 1177.95 117.031 1179.84 115.635C1181.73 114.286 1182.67 112.441 1182.67 110.146C1182.67 108.841 1182.31 107.672 1181.59 106.637C1180.87 105.602 1179.52 104.522 1177.54 103.397C1175.56 102.272 1172.68 101.012 1168.86 99.5724C1165.12 98.1324 1161.97 96.6479 1159.45 95.1627C1156.89 93.633 1154.95 91.8783 1153.6 89.7636C1152.25 87.6942 1151.58 85.0845 1151.58 81.8899C1151.58 76.8501 1153.6 73.0261 1157.65 70.3259C1161.7 67.6263 1167.06 66.2769 1173.76 66.2769C1177.27 66.2769 1180.6 66.6368 1183.71 67.3562C1186.81 68.0761 1189.87 69.0662 1192.79 70.3711L1189.02 79.0999C1186.5 78.0199 1183.93 77.1203 1181.28 76.3551C1178.62 75.5905 1175.92 75.2305 1173.22 75.2305C1166.2 75.2305 1162.69 77.2554 1162.69 81.3496C1162.69 82.6997 1163.09 83.9147 1163.96 84.9042C1164.76 85.8943 1166.2 86.929 1168.27 87.9191C1170.29 88.9086 1173.18 90.1236 1176.82 91.5636C1180.33 92.9136 1183.39 94.3529 1185.91 95.8381C1188.48 97.3226 1190.41 99.0773 1191.76 101.147C1193.16 103.307 1193.83 105.917 1193.83 109.066Z" fill="#02194A"></path><path d="M147.359 94.8977C149.113 94.1777 150.869 93.3227 152.578 92.3778C176.292 78.9699 184.661 48.7783 171.252 25.0663C157.843 1.35414 127.65 -7.01486 103.937 6.3935C86.3432 16.3373 77.254 35.55 79.1439 54.4476C63.9346 43.064 42.7862 40.9943 25.1925 50.9381C1.47919 64.3916 -6.89023 94.5829 6.51886 118.295C19.9279 142.007 50.1207 150.376 73.8337 136.968C75.2291 136.203 76.534 135.348 77.7937 134.448C76.7137 144.392 78.5589 154.74 83.8232 164.099C97.2325 187.811 127.425 196.18 151.138 182.772C174.852 169.364 183.221 139.172 169.812 115.46C164.502 106.011 156.493 99.0824 147.359 94.8977ZM65.0599 121.445C49.8957 130.038 30.5921 124.684 21.9977 109.521C13.4033 94.358 18.758 75.0553 33.9218 66.461C49.0857 57.8672 68.3891 63.2218 76.9839 78.385C85.578 93.5476 80.2232 112.896 65.0599 121.445ZM112.666 21.9166C127.83 13.3227 147.134 18.677 155.728 33.8401C164.322 49.0033 158.968 68.3061 143.804 76.8998C128.64 85.4942 109.336 80.1397 100.742 64.9764C92.1478 49.8132 97.502 30.5106 112.666 21.9166ZM95.7924 89.1832L95.1177 82.794L100.247 86.6187C102.857 88.5537 105.737 90.2631 108.842 91.6578L114.691 94.3128L108.751 96.7874C106.907 97.5526 105.287 98.3172 103.847 99.1722C102.542 99.8922 101.282 100.702 100.067 101.557L94.9826 105.112L95.6574 98.9473C96.1072 95.6629 96.1072 92.3332 95.7924 89.1832ZM142.364 167.249C127.2 175.843 107.897 170.488 99.302 155.325C90.7078 140.162 96.0626 120.86 111.227 112.265C126.39 103.672 145.694 109.026 154.288 124.189C162.882 139.352 157.528 158.655 142.364 167.249Z" fill="#0E80E1"></path></g><defs><clipPath id="clip0_3722_464"><rect width="1200" height="194.755" fill="white"></rect></clipPath></defs></svg>