<svg xmlns="http://www.w3.org/2000/svg" width="304" height="51" viewBox="0 0 304 51" fill="none"><path d="M0 25.734L5.52372 20.2103L11.0474 25.734L5.52372 31.2577L0 25.734Z" fill="#EAB91E"></path><path fill-rule="evenodd" clip-rule="evenodd" d="M5.52372 20.2549L0.0445911 25.734L5.52372 31.2131L11.0029 25.734L5.52372 20.2549ZM0 25.734L5.52372 31.2577L11.0474 25.734L5.52372 20.2103L0 25.734Z" fill="#EAB91E"></path><path d="M19.6914 25.734L25.2151 20.2103L30.7389 25.734L25.2151 31.2577L19.6914 25.734Z" fill="#EAB91E"></path><path fill-rule="evenodd" clip-rule="evenodd" d="M25.2151 20.2549L19.736 25.734L25.2151 31.2131L30.6943 25.734L25.2151 20.2549ZM19.6914 25.734L25.2151 31.2577L30.7389 25.734L25.2151 20.2103L19.6914 25.734Z" fill="#EAB91E"></path><path d="M39.3926 25.734L44.9163 20.2103L50.44 25.734L44.9163 31.2577L39.3926 25.734Z" fill="#EAB91E"></path><path fill-rule="evenodd" clip-rule="evenodd" d="M44.9107 20.2549L39.4316 25.734L44.9107 31.2131L50.3899 25.734L44.9107 20.2549ZM39.3926 25.734L44.9163 31.2577L50.44 25.734L44.9163 20.2103L39.3926 25.734Z" fill="#EAB91E"></path><path fill-rule="evenodd" clip-rule="evenodd" d="M25.2318 0.528381V11.5758L15.3382 21.4639L9.81445 15.9402L25.2318 0.528381ZM25.2485 0.528381V11.5758L35.1422 21.4695L40.6659 15.9458L25.2485 0.528381Z" fill="#EAB91E"></path><path fill-rule="evenodd" clip-rule="evenodd" d="M25.2044 0.490205L9.74805 15.941L15.3387 21.5316L25.2379 11.6324L35.1371 21.5316L40.7277 15.941L25.2825 0.490205V0.41217L25.2435 0.451188L25.2044 0.41217V0.490205ZM25.2992 11.5544L35.1427 21.3979L40.5995 15.941L25.2992 0.646274V11.5544ZM25.1821 0.646274L9.88739 15.941L15.3442 21.3979L25.1877 11.5544V0.646274H25.1821Z" fill="#EAB91E"></path><path fill-rule="evenodd" clip-rule="evenodd" d="M25.2318 50.8268V39.7849L15.3382 29.8913L9.81445 35.415L25.2318 50.8268ZM25.2485 50.8268V39.7849L35.1422 29.8913L40.6659 35.415L25.2485 50.8268Z" fill="#EAB91E"></path><path fill-rule="evenodd" clip-rule="evenodd" d="M25.2044 50.867L9.74805 35.4162L15.3387 29.8256L25.2379 39.7248L35.1371 29.8256L40.7333 35.4162L25.2825 50.867V50.945L25.2435 50.906L25.2044 50.945V50.867ZM25.2992 39.8028L35.1427 29.9593L40.5995 35.4162L25.2992 50.7109V39.8028ZM25.1821 50.7109L9.88739 35.4162L15.3442 29.9593L25.1877 39.8028V50.7109H25.1821Z" fill="#EAB91E"></path><path d="M82.6839 24.9438C85.0863 23.9684 86.7807 21.6162 86.7807 18.8627V18.7512C86.7807 15.1282 83.8433 12.1852 80.2147 12.1852H65.1875V24.8491V25.4287V39.2854H81.5692C85.521 39.2854 88.726 36.0804 88.726 32.1285V32.0059C88.7316 28.4331 86.1063 25.4789 82.6839 24.9438ZM71.0011 17.2741H77.6897C79.3006 17.2741 80.6105 18.584 80.6105 20.1949V20.245C80.6105 21.8559 79.3006 23.1657 77.6897 23.1657H71.0011V17.2741ZM79.518 33.9568H71.0011V28.0652H79.518C81.1455 28.0652 82.4666 29.3862 82.4666 31.0138C82.461 32.6358 81.1455 33.9568 79.518 33.9568Z" fill="#EAB91E"></path><path d="M109.524 12.1852H103.477V39.2854H109.524V12.1852Z" fill="#EAB91E"></path><path d="M303.999 17.8873V12.1852H289.629H283.576V17.8873V22.8815V28.5836V33.5833V39.2854H289.629H303.999V33.5833H289.629V28.5836H302.36V22.8815H289.629V17.8873H303.999Z" fill="#EAB91E"></path><path d="M142.088 12.1852V28.6393L130.321 12.1852H124.273V39.2854H130.321V22.5916L142.088 39.2854H148.135V12.1852H142.088Z" fill="#EAB91E"></path><path d="M223.832 12.1852V28.6393L212.065 12.1852H206.018V39.2854H212.065V22.5916L223.832 39.2854H229.879V12.1852H223.832Z" fill="#EAB91E"></path><path d="M180.16 12.1852H174.603L162.887 39.2854H169.152L171.331 33.1653H182.445L185.277 39.2854H191.269L180.16 12.1852ZM173.566 27.8255L177.161 19.5984L180.757 27.8255H173.566Z" fill="#EAB91E"></path><path d="M265.392 30.4658C263.92 32.5114 261.518 33.8491 258.803 33.8491C254.322 33.8491 250.682 30.215 250.682 25.728C250.682 21.2466 254.316 17.6068 258.803 17.6068C261.384 17.6068 263.675 18.8164 265.163 20.6892C266.088 19.7472 267.448 18.3203 268.619 17.0885C266.133 14.0841 262.376 12.1723 258.179 12.1723C250.693 12.1723 244.629 18.2367 244.629 25.7224C244.629 33.2082 250.693 39.2725 258.179 39.2725C262.499 39.2725 266.345 37.2492 268.825 34.0944L265.392 30.4658Z" fill="#EAB91E"></path></svg>