<svg xmlns="http://www.w3.org/2000/svg" width="305" height="65" viewBox="0 0 305 65" fill="none"><path fill-rule="evenodd" clip-rule="evenodd" d="M45.0642 24.6941C46.8354 15.8011 42.7947 3.09387 22.7476 3.09387C2.70056 3.09387 -1.35259 15.8011 0.34972 24.6941C1.47861 30.5914 6.00955 33.9399 6.00955 33.9399C6.00955 33.9399 1.54992 37.3679 0.375326 43.2653C-1.39591 52.1583 3.0847 64.8655 22.6919 64.8655C42.2991 64.8655 46.7921 52.1583 45.0898 43.2653C43.9609 37.3679 39.2466 33.9399 39.2466 33.9399C39.2466 33.9399 43.8896 30.5914 45.0642 24.6941ZM33.1794 20.8414C33.1794 28.7668 22.7889 33.922 22.7889 33.922C22.7889 33.922 12.2596 28.6968 12.2596 20.8414C12.2596 20.8414 12.6306 13.0951 22.7889 13.0951C32.9473 13.0951 33.1794 20.8414 33.1794 20.8414ZM22.7888 33.9221C22.7888 33.9221 33.1792 39.0773 33.1792 47.0028C33.1792 47.0028 32.9471 54.7491 22.7888 54.7491C12.6304 54.7491 12.2594 47.0028 12.2594 47.0028C12.2594 39.1474 22.7888 33.9221 22.7888 33.9221Z" fill="#34B66A"></path><path fill-rule="evenodd" clip-rule="evenodd" d="M88.2833 39.4972C86.0461 46.0541 79.9333 50.7597 72.7431 50.7597C63.6579 50.7597 56.293 43.247 56.293 33.9796C56.293 24.7123 63.6579 17.1996 72.7431 17.1996C81.8283 17.1996 89.1933 24.7123 89.1933 33.9796C89.1933 34.7778 89.1386 35.563 89.033 36.3315H79.0009L65.0599 36.3316C65.9816 40.294 69.1239 43.2119 72.8586 43.2119C75.4994 43.2119 77.8441 41.7529 79.3169 39.4972H88.2833ZM72.8589 24.3982C69.1243 24.3982 65.982 27.0223 65.0602 30.5858H80.6576C79.7358 27.0223 76.5935 24.3982 72.8589 24.3982Z" fill="#34B66A"></path><rect x="92.3242" y="17.1996" width="8.47338" height="33.5601" fill="#34B66A"></rect><path fill-rule="evenodd" clip-rule="evenodd" d="M151.223 0.442261L142.75 8.98627V50.7597H151.223V31.343C151.806 29.1617 153.49 25.2023 158.064 24.9688C164.396 24.6455 163.894 32.1557 163.894 32.1557V50.6006H172.438V28.5371C172.438 28.5371 172.692 19.8375 164.036 17.7168C155.38 15.5961 151.228 21.0988 151.228 21.0988L151.223 21.1106V0.442261Z" fill="#34B66A"></path><path d="M96.4799 10.3943L100.798 6.23865V14.5935H92.3242L96.4799 10.3943Z" fill="#34B66A"></path><path fill-rule="evenodd" clip-rule="evenodd" d="M131.245 21.0506C132.558 19.8672 134.445 17.8499 134.445 17.8499H138.202V42.3877C138.202 42.6382 138.205 42.9113 138.207 43.2041C138.259 48.8553 138.377 61.8695 122.06 61.8695C108.192 61.8695 105.826 50.4587 105.826 50.4587H114.314C114.314 50.4587 115.844 54.5409 122.06 54.587C129.809 54.147 129.743 48.6083 129.717 46.3797C129.715 46.2607 129.714 46.151 129.714 46.0521C129.714 46.0521 122.645 52.4783 111.599 46.2357C103.254 40.7789 105.175 30.5134 105.175 30.5134C107.959 15.2989 124.75 14.6033 131.245 21.0506ZM121.654 41.1013C126.209 41.1013 129.901 37.4089 129.901 32.8542C129.901 28.2995 126.209 24.6072 121.654 24.6072C117.1 24.6072 113.407 28.2995 113.407 32.8542C113.407 37.4089 117.1 41.1013 121.654 41.1013Z" fill="#34B66A"></path><path d="M173.508 23.2783V25.0244H179.239V38.8855C179.239 45.4435 184.556 50.7598 191.114 50.7598H196.321V43.1303H191.51C189.324 43.1303 187.552 41.3582 187.552 39.1722V25.0244H196.321V18.3058H187.552V9.99304H186.793L173.508 23.2783Z" fill="#34B66A"></path><path fill-rule="evenodd" clip-rule="evenodd" d="M229.834 37.5201C228.241 45.0872 221.645 50.7597 213.751 50.7597C204.666 50.7597 197.301 43.247 197.301 33.9796C197.301 24.7123 204.666 17.1996 213.751 17.1996C221.645 17.1996 228.241 22.8722 229.834 30.4394H221.822C220.477 27.2517 217.37 25.0199 213.751 25.0199C208.9 25.0199 204.968 29.0313 204.968 33.9796C204.968 38.9279 208.9 42.9393 213.751 42.9393C217.369 42.9393 220.477 40.7077 221.822 37.5201H229.834Z" fill="#34B66A"></path><path fill-rule="evenodd" clip-rule="evenodd" d="M258.142 47.1469C255.339 49.4091 251.796 50.7597 247.944 50.7597C238.859 50.7597 231.494 43.247 231.494 33.9796C231.494 24.7123 238.859 17.1996 247.944 17.1996C251.888 17.1996 255.508 18.6153 258.342 20.9758L259.397 17.2663H265.642V50.6927H259.397L258.142 47.1469ZM257.442 33.9795C257.442 38.8326 253.585 42.7669 248.828 42.7669C244.07 42.7669 240.213 38.8326 240.213 33.9795C240.213 29.1264 244.07 25.1921 248.828 25.1921C253.585 25.1921 257.442 29.1264 257.442 33.9795Z" fill="#34B66A"></path><path fill-rule="evenodd" clip-rule="evenodd" d="M304.316 33.7724C304.316 43.0397 296.951 50.5524 287.866 50.5524C284.586 50.5524 281.53 49.5734 278.965 47.8862V61.8696H270.41V16.9924H276.045L277.514 20.7306C280.341 18.3929 283.943 16.9923 287.866 16.9923C296.951 16.9923 304.316 24.505 304.316 33.7724ZM278.598 36.627L278.295 32.0962C279.064 27.9678 282.62 24.8465 286.891 24.8465C291.724 24.8465 295.642 28.8428 295.642 33.7724C295.642 38.702 291.724 42.6983 286.891 42.6983C283.037 42.6983 279.765 40.1567 278.598 36.627Z" fill="#34B66A"></path></svg>