<svg xmlns="http://www.w3.org/2000/svg" width="304" height="67" viewBox="0 0 304 67" fill="none"><path d="M27.6674 66.3274C20.1528 65.6517 12.9798 62.2735 7.28688 56.6431C5.46516 54.8414 3.87115 52.8145 3.87115 52.364C3.87115 51.9136 29.0337 23.6491 29.0337 23.6491V46.9589H60.3445C60.3445 46.9589 58.9782 49.8867 57.8396 51.6884C56.4733 53.7153 55.107 55.5171 53.513 56.8684C46.6816 63.6248 37.1175 67.003 27.6674 66.3274ZM75.2598 57.7692V37.8377C75.2598 15.4288 75.2598 17.0053 76.1707 14.5279C77.0815 12.0505 78.9032 10.2488 80.9527 9.34796C82.0913 8.89753 82.7744 8.89753 84.8238 8.4471H122.852V19.9331H95.4126C93.3631 19.9331 92.68 20.3835 91.9968 20.6087C91.086 21.0591 90.6306 21.2844 90.1751 22.4104C90.1751 22.8609 89.7197 22.8609 89.7197 23.3113V27.5904H122.852V38.9638H89.9474V57.544L75.2598 57.7692ZM235.913 57.7692C235.913 57.7692 235.913 49.211 235.913 38.7385V19.2574L236.368 17.4557C237.734 12.7262 240.239 9.57317 244.11 8.4471H245.021H295.119H296.029C300.356 9.79839 303.316 14.3027 304 19.8205C304 20.7213 304 26.5769 304 39.752V57.8818H289.995C289.995 46.5085 289.995 35.6981 289.995 24.4374L289.54 23.5365C288.629 21.5096 286.579 20.1583 284.074 19.7079C283.391 19.7079 282.025 19.7079 280.659 19.7079H277.926V57.7692C273.372 57.7692 268.134 57.7692 263.466 57.7692V19.9331H259.595C256.635 19.9331 256.179 19.9331 255.041 20.3835C252.991 21.0591 252.081 22.4104 250.714 23.7617L250.259 24.4374C250.259 35.8107 250.259 46.6211 250.259 57.8818L235.913 57.7692ZM125.357 57.7692C131.278 48.7606 136.06 42.1168 142.322 32.8829L125.357 8.22188H140.272L152.227 25.0004L164.183 8.22188H178.301L161.792 32.8829L178.984 57.7692H164.524L152.569 40.315L140.159 57.7692H125.357ZM187.637 57.7692C183.766 57.0936 180.806 53.9406 179.667 50.1119C179.212 48.3102 179.212 17.5683 179.667 15.8792C180.35 12.501 182.627 9.57317 186.271 7.99667H223.844C226.576 8.67231 229.309 10.6993 230.675 13.4018C231.358 15.2036 231.586 15.8792 231.586 19.9331C231.586 23.3113 231.586 23.7617 231.131 23.7617H219.176C219.176 23.3113 218.493 21.7348 217.809 21.0591C217.126 20.3835 216.899 20.1583 215.305 19.7079H196.518L195.835 20.1583C194.924 20.8339 193.785 21.5096 193.33 22.6356L193.102 23.7617V42.342L193.558 43.2428C194.241 44.1437 194.924 45.2698 196.063 45.9454L196.973 46.3958H215.76L216.443 45.9454C218.265 45.2698 219.176 43.4681 219.176 41.6663C219.176 41.2159 219.176 40.9907 219.631 40.7655H231.131C231.586 41.2159 231.586 41.4411 231.586 45.2698C231.586 49.9993 231.586 50.4497 230.675 52.4767C229.764 54.5036 227.26 56.981 224.299 57.6566H187.637V57.7692ZM32.4494 43.2428V21.2844H0C0 20.8339 1.82172 17.0053 2.73258 15.654C8.19774 7.99667 15.8262 2.92933 25.3902 1.35282C34.4988 0.00153128 43.2658 2.02847 50.5527 7.65885C53.0576 9.46057 56.0179 12.8388 57.3842 14.8657C57.8396 15.3162 57.8396 15.5414 57.8396 15.5414L32.4494 43.2428Z" fill="#288CEA"></path></svg>