<svg xmlns="http://www.w3.org/2000/svg" width="305" height="102" viewBox="0 0 305 102" fill="none"><path d="M73.8059 57.7631H66.4805V22.845H73.8059V57.7631Z" fill="black"></path><path d="M100.912 33.3447C102.621 34.8098 103.354 37.0075 103.354 40.1819V57.5188H96.5165V41.8911C96.5165 40.426 96.2723 39.4493 96.0281 38.7167C95.2956 37.4958 94.0747 36.7633 92.1212 36.7633C89.9236 36.7633 88.2143 37.74 87.4817 39.6935C86.9934 40.6702 86.7492 41.8911 86.7492 43.6004V57.5188H80.1562V31.8796H86.7492V35.7866C87.7259 34.5657 88.4585 33.5889 89.191 32.8564C90.6561 31.8796 92.3654 31.1471 94.563 31.1471C97.0048 31.3913 99.2025 31.8796 100.912 33.3447Z" fill="black"></path><path d="M106.771 37.0073V32.1237H110.434V24.7982H117.027V32.1237H121.178V37.0073H117.027V50.6816C117.027 51.9025 117.027 52.3908 117.516 52.635C117.76 52.8792 118.736 53.1234 119.957 53.1234C120.202 53.1234 120.446 53.1234 120.69 53.1234C120.934 53.1234 121.178 53.1234 121.422 53.1234V58.007H118.004C114.83 58.007 112.632 57.5187 111.411 56.2978C110.678 55.5652 110.19 54.3443 110.19 52.635V36.7632H106.771V37.0073Z" fill="black"></path><path d="M141.933 32.6119C143.642 33.3445 145.351 34.8096 146.328 36.5188C147.549 37.9839 148.037 39.9374 148.526 41.8909C148.77 43.1118 148.77 44.821 148.77 47.0187H129.968C129.968 49.7047 130.945 51.414 132.654 52.3907C133.631 52.8791 134.852 53.3674 136.317 53.3674C137.782 53.3674 139.003 52.8791 139.979 52.1465C140.468 51.6582 140.956 51.1698 141.445 50.4372H148.282C148.037 51.9023 147.305 53.6116 145.84 55.0767C143.642 57.5185 140.224 58.9836 136.073 58.9836C132.654 58.9836 129.48 57.7627 127.038 55.8093C124.352 53.6116 123.131 50.1931 123.131 45.5536C123.131 41.1583 124.352 37.7398 126.794 35.2979C129.235 32.8561 132.166 31.6352 136.073 31.6352C138.27 31.391 140.224 31.6352 141.933 32.6119ZM131.921 38.2281C130.945 39.2049 130.212 40.4258 130.212 42.135H141.933C141.933 40.4258 141.2 38.9607 140.224 37.9839C139.003 37.0072 137.782 36.5188 136.317 36.5188C134.119 36.763 132.898 37.2514 131.921 38.2281Z" fill="black"></path><path d="M167.085 31.3913C167.085 31.3913 167.329 31.3913 167.573 31.3913V38.2284C167.085 38.2284 166.84 38.2284 166.352 38.2284C166.108 38.2284 165.864 38.2284 165.619 38.2284C162.933 38.2284 161.224 39.2051 160.003 40.9144C159.515 41.8911 159.271 43.3562 159.271 45.5539V57.763H152.434V31.8796H158.782V36.2749C159.759 34.5656 160.736 33.3447 161.468 32.8564C162.689 31.6355 164.399 31.1471 166.352 31.1471C166.84 31.3913 166.84 31.3913 167.085 31.3913Z" fill="black"></path><path d="M181.736 42.1355C182.957 41.8913 183.934 41.6471 184.422 41.6471C185.399 41.1587 185.888 40.6704 185.888 39.6936C185.888 38.4727 185.399 37.9844 184.667 37.496C183.934 37.0076 182.957 37.0076 181.248 37.0076C179.539 37.0076 178.562 37.496 177.83 38.2286C177.341 38.7169 177.097 39.6936 176.853 40.6704H170.26C170.26 38.4727 170.992 36.5193 172.213 35.0542C173.923 32.8565 177.097 31.6356 181.492 31.6356C184.178 31.6356 186.864 32.124 189.062 33.3449C191.26 34.5658 192.48 36.5193 192.48 39.6936V51.4144C192.48 52.1469 192.48 53.1237 192.48 54.3446C192.48 55.3213 192.725 55.8097 192.969 56.0539C193.213 56.2981 193.457 56.5422 193.946 56.7864V57.7632H186.62C186.376 57.2748 186.376 56.7864 186.132 56.2981C186.132 55.8097 186.132 55.3213 185.888 54.5888C184.911 55.5655 183.934 56.5422 182.713 57.2748C181.248 58.0073 179.539 58.4957 177.83 58.4957C175.632 58.4957 173.434 57.7632 171.969 56.5422C170.504 55.3213 169.771 53.3679 169.771 50.926C169.771 47.7517 170.992 45.3098 173.434 44.0889C174.899 43.3564 176.853 42.868 179.539 42.3796L181.736 42.1355ZM185.888 45.3098C185.399 45.554 184.911 45.7982 184.422 45.7982C183.934 46.0424 183.446 46.0424 182.713 46.2866L181.248 46.5308C179.783 46.7749 178.806 47.0191 178.074 47.5075C176.853 47.9959 176.364 49.2168 176.364 50.4377C176.364 51.6586 176.609 52.3911 177.341 52.8795C177.83 53.3679 178.806 53.612 179.783 53.612C181.248 53.612 182.469 53.1237 183.934 52.3911C185.155 51.4144 185.888 49.9493 185.888 47.7517V45.3098V45.3098Z" fill="black"></path><path d="M213.724 41.1585C213.724 40.1818 213.235 39.4493 212.747 38.4725C212.014 37.4958 210.793 36.7633 209.328 36.7633C207.131 36.7633 205.421 37.9842 204.689 40.1818C204.2 41.4027 203.956 42.8678 203.956 45.0655C203.956 47.0189 204.2 48.484 204.689 49.7049C205.421 51.9026 206.886 52.8793 209.328 52.8793C211.038 52.8793 212.014 52.3909 212.747 51.6584C213.479 50.6817 213.968 49.7049 213.968 48.2398H220.805C220.561 50.4375 219.828 52.1468 218.607 54.1002C216.41 57.0304 213.479 58.4955 209.084 58.4955C204.689 58.4955 201.759 57.2746 199.805 54.8328C197.852 52.3909 196.875 49.2166 196.875 45.3096C196.875 40.9144 198.096 37.4958 200.049 35.054C202.247 32.6121 205.177 31.3912 209.084 31.3912C212.258 31.3912 214.945 32.1238 216.898 33.5889C218.851 35.054 220.317 37.4958 220.561 41.4027H213.724C213.724 41.4027 213.724 41.1585 213.724 41.1585Z" fill="black"></path><path d="M222.758 37.0073V32.1237H226.421V24.7982H233.013V32.1237H237.165V37.0073H233.013V50.6816C233.013 51.9025 233.013 52.3908 233.502 52.635C233.746 52.8792 234.723 53.1234 235.944 53.1234C236.188 53.1234 236.432 53.1234 236.676 53.1234C236.92 53.1234 237.165 53.1234 237.409 53.1234V58.007H233.99C230.816 58.007 228.618 57.5187 227.397 56.2978C226.909 55.5652 226.421 54.3443 226.421 52.8792V37.0073H222.758Z" fill="black"></path><path d="M248.644 28.9493H241.807V22.8447H248.644V28.9493ZM241.807 31.8795H248.644V57.7628H241.807V31.8795Z" fill="black"></path><path d="M270.618 31.8795H277.944L268.665 57.7629H261.584L252.305 31.8795H259.874L265.246 50.9258L270.618 31.8795Z" fill="black"></path><path d="M297.478 32.6119C299.187 33.3445 300.896 34.8096 301.873 36.5188C303.094 37.9839 303.582 39.9374 304.071 41.8909C304.315 43.1118 304.315 44.821 304.315 47.0187H285.513C285.513 49.7047 286.49 51.414 288.199 52.3907C289.176 52.8791 290.397 53.3674 291.862 53.3674C293.327 53.3674 294.548 52.8791 295.524 52.1465C296.013 51.6582 296.501 51.1698 296.989 50.4372H303.827C303.582 51.9023 302.85 53.6116 301.385 55.0767C299.187 57.5185 295.769 58.9836 291.617 58.9836C288.199 58.9836 285.025 57.7627 282.583 55.8093C279.897 53.6116 278.676 50.1931 278.676 45.5536C278.676 41.1583 279.897 37.7398 282.339 35.2979C284.78 32.8561 287.711 31.6352 291.617 31.6352C293.571 31.391 295.769 31.6352 297.478 32.6119ZM287.466 38.2281C286.49 39.2049 285.757 40.4258 285.757 42.135H297.234C297.234 40.4258 296.501 38.9607 295.524 37.9839C294.303 37.0072 293.083 36.5188 291.617 36.5188C289.664 36.763 288.443 37.2514 287.466 38.2281Z" fill="black"></path><path d="M67.627 65.8373H82.5222C86.6733 65.8373 89.6035 67.0582 91.3128 69.5C92.2895 70.9651 92.7778 72.6744 92.7778 74.3837C92.7778 76.5813 92.2895 78.2906 90.8244 79.7557C90.336 80.4882 89.1151 81.2208 88.1384 81.7091C89.8476 82.4417 91.3127 83.1742 92.0453 83.9068C93.7546 85.3719 94.2429 87.5695 94.2429 90.2555C94.2429 92.4532 93.5104 94.6508 92.0453 96.3601C89.8476 99.0461 86.4291 100.511 82.0338 100.511H67.1387L67.627 65.8373ZM80.8129 80.4882C82.7664 80.4882 84.4756 80.2441 85.4524 79.7557C87.1616 78.779 88.1384 77.3139 88.1384 75.1162C88.1384 72.9186 87.1616 71.2093 85.4524 70.4767C84.2315 69.9884 82.7664 69.7442 80.8129 69.7442H72.2665V80.4882H80.8129V80.4882ZM82.5222 96.3601C85.4524 96.3601 87.4058 95.6276 88.6267 93.9183C89.3593 92.6974 89.8477 91.7206 89.8477 90.0113C89.8477 87.5695 88.6267 85.8602 86.4291 84.8835C85.2082 84.3952 83.7431 84.151 81.5454 84.151H72.0223V96.3601C72.0223 96.3601 82.5222 96.3601 82.5222 96.3601Z" fill="black"></path><path d="M99.6114 75.1163H103.518V79.5116C103.762 78.5349 104.739 77.5581 105.96 76.3372C107.181 75.1163 108.646 74.6279 110.355 74.6279C110.355 74.6279 110.6 74.6279 110.844 74.6279C111.088 74.6279 111.332 74.6279 111.821 74.6279V79.0232C111.576 79.0232 111.332 79.0232 111.088 79.0232C110.844 79.0232 110.6 79.0232 110.355 79.0232C108.158 79.0232 106.448 79.7558 105.472 81.2209C104.251 82.686 103.762 84.1511 103.762 86.1045V100.755H99.3672L99.6114 75.1163Z" fill="black"></path><path d="M133.798 77.5581C135.996 79.7558 137.217 82.9301 137.217 87.0812C137.217 91.2324 136.24 94.6509 134.287 97.0927C132.333 99.7787 129.403 101 125.008 101C121.589 101 118.903 99.7787 116.706 97.5811C114.752 95.1393 113.531 91.9649 113.531 88.058C113.531 83.6627 114.752 80.4883 116.706 77.8023C118.903 75.3605 121.589 73.8954 125.252 73.8954C128.671 74.3838 131.357 75.6047 133.798 77.5581ZM131.112 94.6509C132.089 92.4533 132.822 90.2556 132.822 87.5696C132.822 85.1278 132.333 83.1743 131.601 81.7092C130.38 79.5116 128.426 78.2907 125.496 78.2907C122.81 78.2907 121.101 79.2674 119.88 81.2209C118.659 83.1743 118.171 85.6161 118.171 88.5463C118.171 91.2323 118.659 93.43 119.88 95.1393C121.101 96.8486 122.81 97.8253 125.496 97.8253C128.182 97.8253 130.136 96.6044 131.112 94.6509Z" fill="black"></path><path d="M141.857 65.8373H146.009V86.1044L156.997 75.3604H162.369L152.601 84.8835L162.857 100.755H157.485L149.427 87.8137L146.009 91.2323V100.755H141.857V65.8373V65.8373Z" fill="black"></path><path d="M180.681 75.8488C182.39 76.5814 183.611 77.8023 184.588 79.2674C185.32 80.4883 186.053 81.9534 186.297 83.6627C186.541 84.8836 186.785 86.5929 186.785 89.2789H168.472C168.472 91.9649 169.204 93.9184 170.181 95.3834C171.402 97.0927 173.111 97.5811 175.309 97.5811C177.506 97.5811 179.216 96.8485 180.681 95.3834C181.413 94.4067 181.902 93.6742 182.39 92.4533H186.541C186.541 93.43 186.053 94.4067 185.32 95.6276C184.832 96.8485 184.099 97.8253 183.123 98.3136C181.902 99.5346 180.192 100.511 178.239 101C177.262 101.244 176.041 101.488 174.82 101.488C171.646 101.488 168.96 100.267 166.762 98.0695C164.565 95.8718 163.344 92.4533 163.344 88.5463C163.344 84.3952 164.565 81.2209 166.762 78.5349C168.96 76.093 171.89 74.6279 175.309 74.6279C177.262 74.6279 178.971 75.1163 180.681 75.8488ZM182.146 85.8603C181.902 84.1511 181.657 82.4418 180.925 81.465C179.704 79.2674 177.751 78.2907 175.065 78.2907C173.111 78.2907 171.402 79.0232 170.181 80.4883C168.96 81.9534 168.227 83.6627 167.983 85.8603C167.983 85.8603 182.146 85.8603 182.146 85.8603Z" fill="black"></path><path d="M191.668 75.1163H195.575V79.5116C195.819 78.5349 196.796 77.5581 198.017 76.3372C199.238 75.1163 200.703 74.6279 202.412 74.6279C202.412 74.6279 202.656 74.6279 202.9 74.6279C203.145 74.6279 203.389 74.6279 203.877 74.6279V79.0232C203.633 79.0232 203.389 79.0232 203.145 79.0232C202.9 79.0232 202.656 79.0232 202.412 79.0232C200.214 79.0232 198.505 79.7558 197.528 81.2209C196.307 82.686 195.819 84.1511 195.819 86.1045V100.755H191.424L191.668 75.1163Z" fill="black"></path><path d="M210.227 92.4533C210.227 93.9184 210.716 94.8951 211.448 95.8718C212.669 97.3369 214.378 98.0695 217.064 98.0695C218.774 98.0695 219.994 97.8253 221.46 97.0927C222.68 96.3602 223.169 95.3835 223.169 93.9184C223.169 92.6974 222.68 91.9649 221.704 91.4765C221.215 91.2323 219.75 90.744 218.041 90.2556L214.622 89.2789C212.425 88.7905 210.716 88.058 209.739 87.5696C207.785 86.3487 207.053 84.8836 207.053 82.686C207.053 80.2441 208.029 78.2907 209.739 76.8256C211.448 75.3605 213.89 74.6279 216.82 74.6279C220.727 74.6279 223.413 75.8488 225.122 78.0465C226.343 79.5116 226.832 80.9767 226.832 82.686H222.925C222.925 81.7092 222.436 80.9767 221.948 79.9999C220.971 78.779 219.262 78.2907 216.82 78.2907C215.111 78.2907 213.89 78.5349 213.157 79.2674C212.425 79.7558 211.936 80.7325 211.936 81.7092C211.936 82.9301 212.425 83.6627 213.646 84.3952C214.134 84.8836 215.355 85.1278 216.332 85.372L219.262 86.1045C222.436 86.8371 224.39 87.5696 225.611 88.3022C227.32 89.5231 228.052 90.9882 228.052 93.43C228.052 95.6276 227.076 97.5811 225.366 99.2904C223.657 101 220.971 101.732 217.553 101.732C213.646 101.732 210.96 100.755 209.495 99.0462C207.785 97.3369 207.053 95.1393 206.809 92.6974L210.227 92.4533Z" fill="black"></path><circle cx="38.2384" cy="64.529" r="13.4083" fill="#D71221"></circle><path d="M44.7781 101.608L8.02219 60.6228L0 101.608H44.7781Z" fill="url(#paint0_linear)"></path><path d="M44.3406 0.092041L0 101.608V52.163L44.3406 0.092041Z" fill="#D71221"></path><defs><linearGradient id="paint0_linear" x1="4.66749" y1="78.8548" x2="44.7781" y2="101.608" gradientUnits="userSpaceOnUse"><stop stop-color="#9E0C1B"></stop><stop offset="1" stop-color="#D71221"></stop></linearGradient></defs></svg>