<svg xmlns="http://www.w3.org/2000/svg" width="907" height="417" viewBox="0 0 907 417" fill="none"><path d="M906.465 18.1718C906.482 20.6106 906.012 23.0293 905.089 25.2848C904.157 27.5404 902.79 29.587 901.057 31.304C899.324 33.0209 897.269 34.3733 895.004 35.281C892.74 36.1892 890.319 36.6343 887.881 36.5901C885.39 36.7263 882.908 36.3543 880.566 35.497C878.232 34.6399 876.098 33.3154 874.287 31.6044C872.484 29.8935 871.039 27.832 870.057 25.546C869.075 23.2601 868.566 20.7975 868.566 18.3088C868.566 15.8201 869.075 13.3576 870.057 11.0716C871.039 8.7856 872.484 6.72417 874.287 5.01321C876.098 3.30224 878.232 1.9777 880.566 1.12046C882.908 0.263232 885.39 -0.108715 887.881 0.0274078C890.302 -0.0310843 892.705 0.395029 894.952 1.28065C897.208 2.16626 899.263 3.49348 900.996 5.18421C902.72 6.87493 904.096 8.89498 905.037 11.1254C905.977 13.3559 906.465 15.7517 906.465 18.1718ZM873.573 18.1718C873.512 20.0676 873.834 21.9559 874.522 23.7235C875.21 25.4909 876.246 27.1012 877.579 28.4578C878.902 29.8142 880.487 30.889 882.238 31.6177C883.988 32.3464 885.869 32.7139 887.768 32.6982C889.631 32.6847 891.469 32.2981 893.176 31.5612C894.891 30.8243 896.433 29.7521 897.721 28.408C899.01 27.0639 900.012 25.4752 900.674 23.7358C901.344 21.9965 901.649 20.1418 901.579 18.2814C901.701 16.3685 901.431 14.4513 900.778 12.6481C900.125 10.8448 899.115 9.19385 897.809 7.79684C896.494 6.39984 894.909 5.28648 893.149 4.52539C891.39 3.76431 889.492 3.3717 887.576 3.3717C885.66 3.3717 883.762 3.76431 882.003 4.52539C880.244 5.28648 878.659 6.39984 877.344 7.79684C876.037 9.19385 875.027 10.8448 874.374 12.6481C873.721 14.4513 873.451 16.3685 873.573 18.2814V18.1718ZM884.537 27.7099H880.313V9.56553C882.63 9.1416 884.972 8.93974 887.332 8.96256C889.518 8.79988 891.713 9.27589 893.628 10.333C894.203 10.8174 894.656 11.4236 894.961 12.1067C895.266 12.7898 895.405 13.5326 895.388 14.2798C895.318 15.3044 894.909 16.2763 894.221 17.0411C893.541 17.8059 892.618 18.3196 891.608 18.5007C892.505 18.8756 893.298 19.4848 893.881 20.2655C894.464 21.0462 894.839 21.9698 894.952 22.9408C895.118 24.5221 895.562 26.0615 896.267 27.4906H891.713C891.016 26.0922 890.537 24.5947 890.284 23.0505C889.962 21.077 888.865 20.2 886.505 20.2H884.537V27.7099ZM884.537 17.4043H886.557C888.865 17.4043 890.729 16.6369 890.729 14.7732C890.729 12.9094 889.518 11.9774 886.888 11.9774C886.104 11.8863 885.321 11.8863 884.537 11.9774V17.4043Z" fill="#4F575D"></path><path d="M438.167 32.5889C364.054 32.5889 308.413 85.5967 302.109 155.489H376.385C381.321 123.256 405.109 98.4239 437.397 98.4239C462.341 98.4239 479.441 110.758 494.298 129.121L548.565 86.8027C525.544 55.0088 491.337 32.5889 438.167 32.5889Z" fill="url(#paint0_linear_1816_137)"></path><path d="M496.13 207.011C480.508 226.086 464.557 238.859 437.366 238.859C405.134 238.859 381.454 214.739 376.41 181.959H301.969C304.278 215.663 319.413 247.201 344.26 270.09C369.105 292.979 401.775 305.48 435.557 305.023C492.786 305.023 525.839 279.972 550.397 245.93L496.13 207.011Z" fill="#181745"></path><path d="M0 299.482H75.7568L87.3779 270.155H181.115L159.023 216.216H108.811L133.534 154.108L98.1773 67.8813L0 299.482Z" fill="url(#paint1_linear_1816_137)"></path><path d="M601.193 290.888L689.942 168.373L601.249 46.0763H667.412L753.476 168.373L664.615 290.888H601.193ZM582.445 36.4834L678.102 168.373L582.445 300.481H669.822L765.041 168.921L765.535 168.209L672.4 36.4834H582.445Z" fill="#4F575D"></path><path d="M739.438 93.7639L779.455 149.676L861.404 36.5347H780.768L739.438 93.7639Z" fill="url(#paint2_linear_1816_137)"></path><path d="M180.018 37.147H111.223H111.168L110.895 37.8051L145.923 122.935L146.141 122.387L184.678 216.233H184.349L206.495 270.173H206.768L218.774 299.501H294.585L186.925 37.147H180.018Z" fill="#181745"></path><path d="M38.0947 390.372C34.0494 387.554 29.422 385.679 24.5549 384.889C22.16 384.422 19.798 383.798 17.4836 383.025C15.9057 382.464 14.4119 381.687 13.0434 380.723C12.1311 380.019 11.4139 379.096 10.9604 378.037C10.5256 376.978 10.3201 375.839 10.3574 374.693C10.3631 373.536 10.6253 372.394 11.1248 371.349C11.6346 370.311 12.3865 369.409 13.3175 368.719C14.39 367.911 15.596 367.298 16.8805 366.911C18.388 366.434 19.9595 366.193 21.54 366.197C24.2296 366.207 26.8983 366.671 29.4337 367.566C32.1551 368.642 34.6897 370.14 36.9434 372.007V372.282L41.0001 366.8L40.671 366.524C38.0473 364.413 35.1056 362.731 31.9552 361.536C28.5504 360.38 24.9707 359.826 21.3756 359.892C18.9161 359.868 16.47 360.258 14.1397 361.045C12.045 361.749 10.0949 362.825 8.38397 364.222C6.76834 365.532 5.4587 367.179 4.54682 369.046C3.65469 370.952 3.20491 373.031 3.23122 375.132C3.16258 377.215 3.53622 379.287 4.32754 381.217C5.13067 382.952 6.31042 384.488 7.78103 385.711C9.53828 387.083 11.4986 388.177 13.5915 388.947C16.2509 389.922 18.9816 390.692 21.7593 391.249C24.1215 391.748 26.4474 392.409 28.7211 393.221C30.2405 393.712 31.6671 394.454 32.9419 395.415C33.8482 396.077 34.5661 396.966 35.0248 397.99C35.4152 399.063 35.6013 400.195 35.573 401.334C35.6058 402.577 35.339 403.807 34.795 404.922C34.2512 406.04 33.4463 407.008 32.4485 407.747C29.9607 409.523 26.9495 410.411 23.8971 410.269C20.5163 410.317 17.1605 409.683 14.0301 408.405C10.902 406.966 8.03162 405.019 5.53352 402.65L1.25781 407.694C7.27806 413.425 15.3123 416.556 23.6231 416.41C26.1854 416.427 28.7356 416.055 31.1878 415.313C33.3598 414.633 35.386 413.553 37.1629 412.132C38.8857 410.753 40.2739 409.001 41.2231 407.005C42.1723 405.012 42.6582 402.828 42.6443 400.623C42.7328 398.676 42.3677 396.739 41.578 394.959C40.7884 393.183 39.596 391.612 38.0947 390.372Z" fill="#3B3E40"></path><path d="M134.592 367.744V361.111H95.4531V416.312H134.592V409.677H102.031V391.755H132.07V385.669H102.031V367.744H134.592Z" fill="#3B3E40"></path><path d="M329.396 392.741C329.732 397.44 328.217 402.083 325.175 405.678C321.963 408.503 317.831 410.063 313.554 410.063C309.276 410.063 305.145 408.503 301.932 405.678C298.916 402.006 297.407 397.321 297.712 392.577V360.839H291.024V392.96C290.962 396.395 291.52 399.812 292.668 403.048C293.581 405.8 295.077 408.325 297.054 410.447C299.082 412.436 301.512 413.968 304.18 414.944C310.161 416.915 316.618 416.915 322.598 414.944C325.347 414 327.854 412.467 329.944 410.447C332.001 408.283 333.571 405.706 334.549 402.884C335.705 399.537 336.262 396.008 336.193 392.469V360.839H329.451L329.396 392.741Z" fill="#3B3E40"></path><path d="M510.566 360.55H503.934V416.186H510.566V360.55Z" fill="#3B3E40"></path><path d="M669.765 360.55H663.133V416.186H669.765V360.55Z" fill="#3B3E40"></path><path d="M859.154 390.262C855.124 387.416 850.491 385.539 845.614 384.779C843.148 384.264 840.713 383.602 838.323 382.808C836.756 382.257 835.279 381.481 833.938 380.505C832.983 379.829 832.241 378.899 831.799 377.82C831.384 376.754 831.182 375.618 831.196 374.475C831.2 373.333 831.461 372.208 831.966 371.184C832.492 370.125 833.262 369.205 834.213 368.498C835.258 367.683 836.449 367.066 837.721 366.69C839.232 366.234 840.803 366.014 842.381 366.032C845.071 366.014 847.746 366.478 850.275 367.404C853.016 368.411 855.559 369.895 857.785 371.79L858.112 372.062L862.115 366.582H861.839C859.203 364.457 856.242 362.775 853.068 361.594C849.693 360.389 846.126 359.814 842.545 359.894C840.065 359.863 837.602 360.253 835.254 361.044C833.157 361.747 831.21 362.824 829.496 364.224C827.884 365.52 826.588 367.171 825.717 369.048C824.776 370.954 824.306 373.061 824.344 375.186C824.306 377.248 824.679 379.3 825.442 381.216C826.229 382.961 827.413 384.501 828.894 385.713C830.646 387.092 832.607 388.186 834.704 388.945C837.372 389.917 840.1 390.705 842.872 391.304C845.234 391.781 847.561 392.422 849.836 393.223C851.355 393.711 852.783 394.453 854.054 395.414C854.963 396.079 855.681 396.964 856.137 397.992C856.548 399.058 856.754 400.193 856.743 401.336C856.761 402.586 856.479 403.826 855.928 404.952C855.374 406.073 854.566 407.052 853.563 407.804C851.072 409.567 848.059 410.434 845.011 410.271C841.629 410.316 838.274 409.685 835.143 408.407C832.043 407.035 829.176 405.185 826.647 402.924L826.372 402.649L822.098 407.693L822.373 407.968C825.417 410.744 828.922 412.97 832.732 414.545C836.592 415.966 840.678 416.67 844.792 416.628C847.338 416.67 849.874 416.3 852.302 415.531C854.49 414.886 856.52 413.806 858.276 412.354C859.927 410.999 861.254 409.295 862.17 407.366C863.125 405.324 863.609 403.095 863.595 400.841C863.759 398.852 863.438 396.849 862.665 395.01C861.892 393.167 860.69 391.541 859.154 390.262Z" fill="#3B3E40"></path><path d="M735.078 416.205H774.217V409.629H741.711V391.703H771.751V385.618H741.711V367.692H774.217V361.06H735.078V416.205Z" fill="#3B3E40"></path><path d="M564.348 367.573H582.329V416.414H588.961V367.573H606.939V360.941H564.348V367.573Z" fill="#3B3E40"></path><path d="M433.22 391.083C434.965 390.237 436.561 389.108 437.933 387.739C439.271 386.395 440.316 384.789 441.002 383.023C441.751 381.082 442.124 379.02 442.099 376.941C442.155 374.631 441.664 372.339 440.675 370.253C439.748 368.253 438.404 366.477 436.728 365.045C434.885 363.575 432.785 362.46 430.535 361.757C427.905 360.955 425.167 360.565 422.422 360.604H399.125V416.244H405.865V393.988H420.558L435.85 415.913H444.127L427.682 392.508C429.58 392.254 431.437 391.773 433.22 391.083ZM431.576 385.053C430.305 385.994 428.873 386.701 427.354 387.137C425.574 387.659 423.728 387.92 421.871 387.903H405.81V366.909H422.255C425.748 366.71 429.214 367.651 432.123 369.594C433.259 370.489 434.164 371.642 434.763 372.959C435.366 374.276 435.645 375.715 435.575 377.16C435.606 378.714 435.269 380.253 434.589 381.654C433.882 383.019 432.844 384.186 431.576 385.053Z" fill="#3B3E40"></path><path d="M230.243 402.597C228.083 404.76 225.628 406.607 222.952 408.08C220.064 409.46 216.889 410.135 213.688 410.055C210.913 410.062 208.166 409.484 205.63 408.355C203.196 407.279 201.012 405.711 199.217 403.75C197.35 401.772 195.897 399.445 194.942 396.898C193.891 394.171 193.371 391.269 193.406 388.347C193.37 385.459 193.891 382.592 194.942 379.903C195.897 377.36 197.35 375.03 199.217 373.051C201.067 371.073 203.309 369.498 205.8 368.432C208.292 367.366 210.978 366.83 213.688 366.858C216.896 366.764 220.078 367.46 222.952 368.885C225.394 370.16 227.661 371.745 229.695 373.602L235.176 369.324C233.853 368.081 232.462 366.91 231.01 365.816C229.536 364.761 227.956 363.862 226.296 363.131C224.531 362.382 222.695 361.81 220.814 361.431C218.616 360.971 216.373 360.751 214.127 360.772C210.362 360.751 206.632 361.497 203.164 362.967C199.909 364.388 196.965 366.436 194.503 368.997C192.142 371.592 190.283 374.601 189.021 377.876C187.661 381.37 186.973 385.09 186.993 388.838C186.983 392.59 187.67 396.306 189.021 399.804C190.275 403.047 192.136 406.025 194.503 408.575C196.946 411.104 199.872 413.117 203.109 414.493C206.573 415.966 210.309 416.695 214.072 416.632C216.337 416.653 218.597 416.43 220.814 415.973C222.698 415.507 224.533 414.866 226.296 414.054C228.022 413.242 229.656 412.25 231.175 411.097C232.739 409.916 234.205 408.617 235.56 407.202V406.931L230.243 402.597Z" fill="#3B3E40"></path><defs><linearGradient id="paint0_linear_1816_137" x1="302.109" y1="94.0383" x2="548.565" y2="94.0383" gradientUnits="userSpaceOnUse"><stop stop-color="#0A529D"></stop><stop offset="1" stop-color="#181745"></stop></linearGradient><linearGradient id="paint1_linear_1816_137" x1="0" y1="183.655" x2="181.115" y2="183.655" gradientUnits="userSpaceOnUse"><stop stop-color="#0A529D"></stop><stop offset="0.61" stop-color="#233065"></stop><stop offset="1" stop-color="#181745"></stop></linearGradient><linearGradient id="paint2_linear_1816_137" x1="24852.3" y1="9213.45" x2="27566.2" y2="9213.45" gradientUnits="userSpaceOnUse"><stop stop-color="#0A529D"></stop><stop offset="1" stop-color="#181745"></stop></linearGradient></defs></svg>